<svg version="1.1" id="Layer_1" xmlns="http://www.w3.org/2000/svg" xmlns:xlink="http://www.w3.org/1999/xlink" x="0px" y="0px"
	 width="100%" viewBox="0 0 735 518" enable-background="new 0 0 735 518" xml:space="preserve">
<path fill="#000101" opacity="1.000000" stroke="none" 
	d="
M522.000000,519.000000 
	C348.000031,519.000000 174.500061,519.000000 1.000070,519.000000 
	C1.000046,346.333405 1.000046,173.666794 1.000023,1.000139 
	C245.999893,1.000093 490.999786,1.000093 735.999756,1.000046 
	C735.999878,173.666519 735.999878,346.333038 735.999939,518.999756 
	C664.833313,519.000000 593.666687,519.000000 522.000000,519.000000 
M452.042999,90.463120 
	C417.047729,71.137161 379.441925,59.005516 340.656738,50.172409 
	C338.645142,49.714283 336.325073,49.929867 334.279968,50.401405 
	C301.427155,57.976280 269.364014,67.930511 238.957611,82.708839 
	C219.867416,91.987175 201.747635,102.781357 185.898544,117.110397 
	C182.782669,119.927444 181.489883,122.775169 182.029388,127.088898 
	C185.401657,154.052536 192.287903,179.978668 203.792740,204.662079 
	C205.337585,207.976532 207.412445,209.966980 210.755524,211.143265 
	C234.915527,219.644196 259.032104,228.269089 283.221069,236.686218 
	C285.446075,237.460464 288.196167,237.606400 290.507233,237.118866 
	C319.974854,230.902420 349.545685,225.091965 378.811371,218.023514 
	C412.693787,209.840012 445.522919,198.283035 477.117157,183.455597 
	C479.471771,182.350571 482.125214,179.715073 482.696869,177.326141 
	C486.717834,160.523132 490.207916,143.593475 493.919067,126.715607 
	C494.761780,122.882950 493.716125,119.840866 490.530273,117.587997 
	C477.915253,108.667137 465.283936,99.769302 452.042999,90.463120 
M334.548492,346.807556 
	C337.228241,349.099823 339.607422,347.992828 342.212494,346.426270 
	C368.932159,330.358246 392.892944,310.871796 414.641815,288.570923 
	C416.259949,286.911743 419.035431,285.526581 421.299347,285.485840 
	C441.102112,285.129364 460.950470,285.838257 480.705994,284.767639 
	C498.022125,283.829193 515.051270,280.324738 530.613342,271.859467 
	C554.824280,258.689484 560.139465,233.208313 543.035217,211.624725 
	C539.566162,207.247147 535.634583,203.236069 532.064880,199.223083 
	C536.211670,194.448059 540.554626,190.049530 544.202759,185.135178 
	C555.958862,169.298798 556.044250,150.430557 544.296631,137.281113 
	C532.318665,123.873817 515.973999,119.522240 499.634216,116.039261 
	C501.131927,122.751717 502.565399,129.176376 504.139984,136.233322 
	C504.918030,136.465927 506.583588,136.755005 508.063843,137.442841 
	C514.218445,140.302811 520.760315,142.624268 526.333008,146.372803 
	C534.773865,152.050613 536.738098,160.905289 531.542664,169.571274 
	C528.258667,175.049072 524.018860,180.232346 519.267700,184.501495 
	C503.089722,199.038177 483.794159,208.580200 464.075836,217.221100 
	C427.037903,233.451736 388.385101,244.612915 348.926086,253.078064 
	C343.831299,254.171066 338.236694,255.189178 333.263123,254.227509 
	C300.043213,247.804230 267.519318,238.706894 235.792694,226.914642 
	C213.285141,218.548935 191.341278,208.909927 171.217575,195.627060 
	C160.757462,188.722763 150.648148,181.283142 144.472290,169.921738 
	C139.494263,160.763870 141.112823,151.950302 149.822983,146.278381 
	C155.853882,142.351166 162.970291,140.106735 169.532990,136.966843 
	C170.818375,136.351852 172.520081,135.242218 172.780899,134.080399 
	C174.101944,128.195328 175.010956,122.217751 176.095108,116.099243 
	C162.206863,118.960617 148.143463,122.818237 136.552750,132.503937 
	C122.415932,144.317291 118.705833,162.777451 127.813332,178.420670 
	C131.615540,184.951385 137.056000,190.530304 141.776108,196.522659 
	C142.545334,197.499237 143.442474,198.375046 144.089523,199.087219 
	C140.031342,203.643280 136.019821,207.670166 132.552399,212.120941 
	C116.092903,233.248337 121.164185,258.603424 144.710571,271.290924 
	C151.669434,275.040558 159.269012,277.989777 166.918137,280.000031 
	C194.817535,287.332367 223.334732,287.072754 251.843567,285.479218 
	C256.475159,285.220337 259.494293,286.245056 262.676575,289.568726 
	C283.871613,311.705627 307.632843,330.683136 334.548492,346.807556 
M109.422791,417.503540 
	C109.422791,433.590698 109.422791,449.677826 109.422791,465.900146 
	C114.834335,465.900146 119.438278,465.900146 124.882622,465.900146 
	C124.882622,453.214478 124.882622,440.765289 124.882622,428.316101 
	C127.013885,429.655396 128.036728,431.139984 128.991364,432.667236 
	C135.169800,442.551514 141.277298,452.481018 147.560165,462.298309 
	C148.541260,463.831360 150.200043,465.798340 151.715714,465.959045 
	C156.276932,466.442749 160.922241,466.133484 165.771683,466.133484 
	C165.771683,444.004333 165.771683,422.450073 165.771683,400.719238 
	C160.752884,400.719238 156.031113,400.719238 150.654785,400.719238 
	C150.654785,413.574493 150.654785,426.049622 150.654785,438.524780 
	C148.723846,437.172089 147.720062,435.674225 146.762665,434.147247 
	C140.482574,424.130737 134.253983,414.081512 127.893066,404.116638 
	C126.972359,402.674286 125.519485,400.692291 124.163666,400.566345 
	C119.447807,400.128326 114.666313,400.397034 109.423035,400.397034 
	C109.423035,406.245972 109.423035,411.376099 109.422791,417.503540 
M583.170044,408.600433 
	C583.170044,427.662262 583.170044,446.724121 583.170044,465.889618 
	C588.604614,465.889618 593.208496,465.889618 598.516907,465.889618 
	C598.516907,457.920074 598.516907,450.206055 598.516907,442.742340 
	C603.125977,441.328461 605.685730,442.362457 607.497314,446.349823 
	C610.106384,452.092621 613.249634,457.599182 616.316101,463.122620 
	C616.971313,464.302734 618.219116,465.899139 619.287842,465.974670 
	C623.796509,466.293518 628.340698,466.109650 633.810547,466.109650 
	C631.210938,461.113586 629.146301,457.174194 627.108276,453.221100 
	C625.011292,449.153717 622.940186,445.072968 620.882874,441.047241 
	C632.256653,434.415863 636.043701,425.732666 632.923462,414.423462 
	C630.463806,405.508362 622.498535,400.435638 610.743042,400.343597 
	C605.585144,400.303223 600.426758,400.332916 595.268555,400.331757 
	C591.349304,400.330902 587.430054,400.331573 583.170105,400.331573 
	C583.170105,403.343781 583.170105,405.491333 583.170044,408.600433 
M285.866821,466.157074 
	C289.649567,466.157074 293.432312,466.157074 297.497742,466.157074 
	C297.497742,444.000244 297.497742,422.455688 297.497742,400.750610 
	C292.452454,400.750610 287.759644,400.750610 282.703888,400.750610 
	C282.703888,408.146057 282.838074,415.127991 282.581024,422.095459 
	C282.534363,423.360596 280.926147,425.599762 279.971405,425.636444 
	C272.352570,425.929382 264.717499,425.799957 256.358276,425.799957 
	C256.358276,417.098785 256.358276,408.877380 256.358276,400.681702 
	C251.027115,400.681702 246.440369,400.681702 241.666687,400.681702 
	C241.666687,422.598755 241.666687,444.160095 241.666687,465.905029 
	C246.636719,465.905029 251.243042,465.905029 256.465424,465.905029 
	C256.465424,457.248535 256.465424,448.834412 256.465424,440.253845 
	C265.478210,440.253845 273.870087,440.253845 282.710144,440.253845 
	C282.710144,447.767090 282.593353,454.917145 282.811401,462.056976 
	C282.853607,463.437439 284.204651,464.777924 285.866821,466.157074 
M181.326279,459.204559 
	C183.287201,460.462097 185.175812,461.853912 187.220856,462.955261 
	C199.886002,469.775940 214.488373,469.015076 223.906082,461.118042 
	C232.226196,454.141418 232.765869,442.936005 224.459976,435.966034 
	C220.203537,432.394196 214.930099,429.976013 209.959061,427.332062 
	C205.852325,425.147797 201.408829,423.589844 197.338654,421.347565 
	C195.981583,420.599976 194.282913,418.301483 194.584213,417.230957 
	C195.020035,415.682526 197.047653,413.664917 198.550049,413.527313 
	C201.561859,413.251434 204.935364,413.502197 207.685486,414.660828 
	C211.101547,416.100006 214.037643,418.678436 217.413864,420.919342 
	C220.682251,417.984772 223.990616,415.014313 227.232788,412.103271 
	C218.561966,398.150604 197.536942,394.476807 185.209167,404.392395 
	C176.836731,411.126587 176.070297,421.595764 184.275925,428.493011 
	C189.159302,432.597748 195.217575,435.332306 200.839066,438.521698 
	C204.595093,440.652679 208.696884,442.214569 212.306580,444.552094 
	C216.182526,447.062042 215.880081,451.209259 211.494690,452.310791 
	C207.703125,453.263153 203.120621,453.199615 199.443283,451.950134 
	C194.518738,450.276764 190.129852,447.026917 185.086411,444.217499 
	C182.551086,447.565674 179.781738,451.222870 176.845047,455.101074 
	C178.368134,456.546051 179.556152,457.673157 181.326279,459.204559 
M558.416565,465.621216 
	C563.481384,465.843048 568.546265,466.064880 574.322266,466.317841 
	C573.218506,462.866608 572.457886,460.339783 571.604614,457.844635 
	C566.271667,442.249695 560.912354,426.663788 555.573059,411.071014 
	C551.845459,400.184662 551.852112,400.345215 540.184753,400.242462 
	C536.641602,400.211273 535.328552,401.536163 534.268982,404.688812 
	C528.010681,423.309021 521.525330,441.852875 515.141785,460.431122 
	C514.569580,462.096405 514.177612,463.823608 513.593811,465.908203 
	C515.704102,466.011536 517.178955,466.133698 518.654907,466.147980 
	C528.937073,466.247467 529.162354,466.311798 532.204712,456.729889 
	C533.469727,452.745758 535.533447,451.677765 539.392761,451.998230 
	C544.022095,452.382629 549.726807,450.669067 553.041016,452.824097 
	C556.037964,454.772858 556.444092,460.706146 558.416565,465.621216 
M83.693489,416.733490 
	C83.103157,415.003082 82.498032,413.277527 81.924881,411.541443 
	C78.151169,400.110809 78.153915,400.209137 65.994392,400.270172 
	C63.024342,400.285095 61.623074,401.144470 60.679230,404.068054 
	C57.257771,414.666199 53.500874,425.155731 49.900169,435.696381 
	C46.527531,445.569305 43.192482,455.455078 39.562981,466.154480 
	C42.989525,466.154480 45.808750,465.804718 48.506748,466.227875 
	C53.995628,467.088776 56.403046,464.682343 57.867306,459.571320 
	C60.043678,451.974731 60.363140,452.066284 68.222527,452.066315 
	C79.555603,452.066376 79.484657,452.093353 83.481064,462.590607 
	C84.016045,463.995880 85.607506,465.851379 86.860680,465.975647 
	C91.117836,466.397644 95.442680,466.136841 100.600273,466.136841 
	C94.897820,449.463226 89.427338,433.467896 83.693489,416.733490 
M382.314178,408.155121 
	C378.745087,398.959869 381.401642,400.541656 371.369476,400.341644 
	C370.703674,400.328369 370.021179,400.434174 369.374023,400.323364 
	C365.028076,399.579163 363.044434,401.324249 361.645111,405.660767 
	C356.078094,422.912903 350.010681,440.003510 344.135101,457.156219 
	C343.184143,459.932251 342.266296,462.719635 341.114899,466.152527 
	C344.430084,466.152527 347.115845,465.824554 349.690582,466.219788 
	C355.303619,467.081451 358.464355,465.152863 359.240417,459.327545 
	C360.027313,453.420837 363.358856,451.580902 369.457550,451.891663 
	C381.180420,452.488983 381.128784,452.092682 385.076996,462.754211 
	C385.582184,464.118286 387.242218,465.869629 388.505096,465.989563 
	C392.764465,466.394012 397.086029,466.143555 402.090546,466.143555 
	C395.448456,446.613068 389.031281,427.743988 382.314178,408.155121 
M420.391083,419.048126 
	C418.669525,413.833893 417.012451,408.596741 415.175140,403.423584 
	C414.779785,402.310394 413.780670,400.619385 412.979706,400.572937 
	C408.298615,400.301300 403.593719,400.439728 398.350281,400.439728 
	C399.220337,403.235748 399.716827,404.980865 400.303986,406.694885 
	C405.804413,422.750885 411.388702,438.778564 416.808716,454.861603 
	C420.680878,466.351654 420.584656,466.289032 432.756104,466.222473 
	C435.699158,466.206360 437.179657,465.373749 438.120880,462.462097 
	C441.293274,452.648315 444.775818,442.935059 448.114929,433.174835 
	C451.757141,422.528564 455.371704,411.872833 459.299683,400.336121 
	C454.634766,400.336121 450.665680,400.012115 446.795471,400.489624 
	C445.161560,400.691223 442.961639,402.267151 442.355713,403.760712 
	C440.234131,408.990387 438.710052,414.461304 436.930603,419.831177 
	C434.388641,427.502075 431.821533,435.164642 429.265167,442.830750 
	C428.897888,442.814728 428.530640,442.798676 428.163391,442.782623 
	C425.667572,435.117432 423.171783,427.452271 420.391083,419.048126 
M513.194092,400.319916 
	C496.620544,400.319916 480.046997,400.319916 463.342773,400.319916 
	C463.342773,405.378265 463.342773,409.647400 463.342773,414.534546 
	C469.796753,414.534546 476.032867,414.534546 482.909851,414.534546 
	C482.909851,432.000702 482.909851,448.861237 482.909851,465.706268 
	C488.261749,465.706268 492.952759,465.706268 498.168427,465.706268 
	C498.168427,448.522308 498.168427,431.799316 498.168427,414.482880 
	C504.942474,414.482880 511.192474,414.482880 517.838989,414.482880 
	C517.838989,410.417389 517.709534,406.945953 517.878723,403.489166 
	C518.021606,400.568665 516.365662,400.189484 513.194092,400.319916 
z"/>
<path fill="#37C2D3" opacity="1.000000" stroke="none" 
	d="
M452.350830,90.663025 
	C465.283936,99.769302 477.915253,108.667137 490.530273,117.587997 
	C493.716125,119.840866 494.761780,122.882950 493.919067,126.715607 
	C490.207916,143.593475 486.717834,160.523132 482.696869,177.326141 
	C482.125214,179.715073 479.471771,182.350571 477.117157,183.455597 
	C445.522919,198.283035 412.693787,209.840012 378.811371,218.023514 
	C349.545685,225.091965 319.974854,230.902420 290.507233,237.118866 
	C288.196167,237.606400 285.446075,237.460464 283.221069,236.686218 
	C259.032104,228.269089 234.915527,219.644196 210.755524,211.143265 
	C207.412445,209.966980 205.337585,207.976532 203.792740,204.662079 
	C192.287903,179.978668 185.401657,154.052536 182.029388,127.088898 
	C181.489883,122.775169 182.782669,119.927444 185.898544,117.110397 
	C201.747635,102.781357 219.867416,91.987175 238.957611,82.708839 
	C269.364014,67.930511 301.427155,57.976280 334.279968,50.401405 
	C336.325073,49.929867 338.645142,49.714283 340.656738,50.172409 
	C379.441925,59.005516 417.047729,71.137161 452.350830,90.663025 
M363.809418,189.944595 
	C365.142548,189.958328 366.483459,189.884598 367.807343,190.002380 
	C371.617828,190.341415 372.378937,188.381454 371.807129,185.089325 
	C367.146271,158.254990 362.559357,131.407776 357.874451,104.577667 
	C356.366058,95.939102 356.262878,95.957115 346.107391,95.902016 
	C341.286377,95.869499 336.435059,96.159248 331.653198,95.709984 
	C327.246643,95.295975 326.000549,97.228569 325.351990,101.170090 
	C321.467865,124.775116 317.345215,148.340775 313.357025,171.928848 
	C312.378754,177.714920 311.603638,183.535324 310.650482,189.905594 
	C316.036743,189.905594 320.492004,189.905594 325.847107,189.955002 
	C330.851868,190.403107 335.664764,190.646515 335.546478,183.393814 
	C335.532684,182.548233 336.478333,181.687012 337.778259,180.511215 
	C339.583130,180.492599 341.480347,180.121521 343.164764,180.562744 
	C344.608551,180.940948 346.935699,182.246353 346.937836,183.146179 
	C346.953979,190.125076 351.277435,190.489059 356.484741,190.004257 
	C358.606445,189.806717 360.757629,189.925415 363.809418,189.944595 
z"/>
<path fill="#A1DFE8" opacity="1.000000" stroke="none" 
	d="
M334.241089,346.629639 
	C307.632843,330.683136 283.871613,311.705627 262.676575,289.568726 
	C259.494293,286.245056 256.475159,285.220337 251.843567,285.479218 
	C223.334732,287.072754 194.817535,287.332367 166.918137,280.000031 
	C159.269012,277.989777 151.669434,275.040558 144.710571,271.290924 
	C121.164185,258.603424 116.092903,233.248337 132.552399,212.120941 
	C136.019821,207.670166 140.031342,203.643280 144.089523,199.087219 
	C143.442474,198.375046 142.545334,197.499237 141.776108,196.522659 
	C137.056000,190.530304 131.615540,184.951385 127.813332,178.420670 
	C118.705833,162.777451 122.415932,144.317291 136.552750,132.503937 
	C148.143463,122.818237 162.206863,118.960617 176.095108,116.099243 
	C175.010956,122.217751 174.101944,128.195328 172.780899,134.080399 
	C172.520081,135.242218 170.818375,136.351852 169.532990,136.966843 
	C162.970291,140.106735 155.853882,142.351166 149.822983,146.278381 
	C141.112823,151.950302 139.494263,160.763870 144.472290,169.921738 
	C150.648148,181.283142 160.757462,188.722763 171.217575,195.627060 
	C191.341278,208.909927 213.285141,218.548935 235.792694,226.914642 
	C267.519318,238.706894 300.043213,247.804230 333.263123,254.227509 
	C338.236694,255.189178 343.831299,254.171066 348.926086,253.078064 
	C388.385101,244.612915 427.037903,233.451736 464.075836,217.221100 
	C483.794159,208.580200 503.089722,199.038177 519.267700,184.501495 
	C524.018860,180.232346 528.258667,175.049072 531.542664,169.571274 
	C536.738098,160.905289 534.773865,152.050613 526.333008,146.372803 
	C520.760315,142.624268 514.218445,140.302811 508.063843,137.442841 
	C506.583588,136.755005 504.918030,136.465927 504.139984,136.233322 
	C502.565399,129.176376 501.131927,122.751717 499.634216,116.039261 
	C515.973999,119.522240 532.318665,123.873817 544.296631,137.281113 
	C556.044250,150.430557 555.958862,169.298798 544.202759,185.135178 
	C540.554626,190.049530 536.211670,194.448059 532.064880,199.223083 
	C535.634583,203.236069 539.566162,207.247147 543.035217,211.624725 
	C560.139465,233.208313 554.824280,258.689484 530.613342,271.859467 
	C515.051270,280.324738 498.022125,283.829193 480.705994,284.767639 
	C460.950470,285.838257 441.102112,285.129364 421.299347,285.485840 
	C419.035431,285.526581 416.259949,286.911743 414.641815,288.570923 
	C392.892944,310.871796 368.932159,330.358246 342.212494,346.426270 
	C339.607422,347.992828 337.228241,349.099823 334.241089,346.629639 
M534.139221,239.247772 
	C534.091736,225.950409 524.625793,218.821930 516.168884,210.790909 
	C496.303528,223.889023 475.220795,233.317871 453.726624,241.922089 
	C452.538483,242.397720 451.193573,243.057693 450.474609,244.037567 
	C445.013489,251.480743 439.690277,259.025085 433.958221,267.050171 
	C453.821198,267.817688 473.145660,267.912750 492.137146,264.325073 
	C502.311737,262.402954 512.276245,258.783661 521.935608,254.928131 
	C528.220215,252.419647 532.873474,247.375885 534.139221,239.247772 
M191.062637,265.520020 
	C207.876099,267.394592 224.715225,267.815277 242.279938,266.987244 
	C239.773056,263.663635 237.431961,261.234589 235.875183,258.378113 
	C229.427429,246.547119 219.361465,240.128693 206.923065,235.173203 
	C190.636414,228.684525 175.289566,219.836884 158.397598,211.436630 
	C155.606308,214.452164 151.826660,218.186172 148.446060,222.251984 
	C137.542023,235.366104 140.096375,247.889847 155.236053,255.790146 
	C166.174759,261.498260 178.096939,263.753754 191.062637,265.520020 
z"/>
<path fill="#38BBCB" opacity="1.000000" stroke="none" 
	d="
M109.422913,417.004883 
	C109.423035,411.376099 109.423035,406.245972 109.423035,400.397034 
	C114.666313,400.397034 119.447807,400.128326 124.163666,400.566345 
	C125.519485,400.692291 126.972359,402.674286 127.893066,404.116638 
	C134.253983,414.081512 140.482574,424.130737 146.762665,434.147247 
	C147.720062,435.674225 148.723846,437.172089 150.654785,438.524780 
	C150.654785,426.049622 150.654785,413.574493 150.654785,400.719238 
	C156.031113,400.719238 160.752884,400.719238 165.771683,400.719238 
	C165.771683,422.450073 165.771683,444.004333 165.771683,466.133484 
	C160.922241,466.133484 156.276932,466.442749 151.715714,465.959045 
	C150.200043,465.798340 148.541260,463.831360 147.560165,462.298309 
	C141.277298,452.481018 135.169800,442.551514 128.991364,432.667236 
	C128.036728,431.139984 127.013885,429.655396 124.882622,428.316101 
	C124.882622,440.765289 124.882622,453.214478 124.882622,465.900146 
	C119.438278,465.900146 114.834335,465.900146 109.422791,465.900146 
	C109.422791,449.677826 109.422791,433.590698 109.422913,417.004883 
z"/>
<path fill="#38BCCC" opacity="1.000000" stroke="none" 
	d="
M583.170044,408.119690 
	C583.170105,405.491333 583.170105,403.343781 583.170105,400.331573 
	C587.430054,400.331573 591.349304,400.330902 595.268555,400.331757 
	C600.426758,400.332916 605.585144,400.303223 610.743042,400.343597 
	C622.498535,400.435638 630.463806,405.508362 632.923462,414.423462 
	C636.043701,425.732666 632.256653,434.415863 620.882874,441.047241 
	C622.940186,445.072968 625.011292,449.153717 627.108276,453.221100 
	C629.146301,457.174194 631.210938,461.113586 633.810547,466.109650 
	C628.340698,466.109650 623.796509,466.293518 619.287842,465.974670 
	C618.219116,465.899139 616.971313,464.302734 616.316101,463.122620 
	C613.249634,457.599182 610.106384,452.092621 607.497314,446.349823 
	C605.685730,442.362457 603.125977,441.328461 598.516907,442.742340 
	C598.516907,450.206055 598.516907,457.920074 598.516907,465.889618 
	C593.208496,465.889618 588.604614,465.889618 583.170044,465.889618 
	C583.170044,446.724121 583.170044,427.662262 583.170044,408.119690 
M617.455139,417.069550 
	C611.534241,412.270569 604.935547,415.184967 598.666748,414.701843 
	C598.666748,419.481567 598.666748,423.545929 598.666748,427.982666 
	C603.041077,427.982666 607.011353,428.070190 610.976257,427.962982 
	C617.630493,427.783081 620.011902,424.188782 617.455139,417.069550 
z"/>
<path fill="#38BBCB" opacity="1.000000" stroke="none" 
	d="
M285.409363,466.146973 
	C284.204651,464.777924 282.853607,463.437439 282.811401,462.056976 
	C282.593353,454.917145 282.710144,447.767090 282.710144,440.253845 
	C273.870087,440.253845 265.478210,440.253845 256.465424,440.253845 
	C256.465424,448.834412 256.465424,457.248535 256.465424,465.905029 
	C251.243042,465.905029 246.636719,465.905029 241.666687,465.905029 
	C241.666687,444.160095 241.666687,422.598755 241.666687,400.681702 
	C246.440369,400.681702 251.027115,400.681702 256.358276,400.681702 
	C256.358276,408.877380 256.358276,417.098785 256.358276,425.799957 
	C264.717499,425.799957 272.352570,425.929382 279.971405,425.636444 
	C280.926147,425.599762 282.534363,423.360596 282.581024,422.095459 
	C282.838074,415.127991 282.703888,408.146057 282.703888,400.750610 
	C287.759644,400.750610 292.452454,400.750610 297.497742,400.750610 
	C297.497742,422.455688 297.497742,444.000244 297.497742,466.157074 
	C293.432312,466.157074 289.649567,466.157074 285.409363,466.146973 
z"/>
<path fill="#38BDCD" opacity="1.000000" stroke="none" 
	d="
M181.035233,459.002411 
	C179.556152,457.673157 178.368134,456.546051 176.845047,455.101074 
	C179.781738,451.222870 182.551086,447.565674 185.086411,444.217499 
	C190.129852,447.026917 194.518738,450.276764 199.443283,451.950134 
	C203.120621,453.199615 207.703125,453.263153 211.494690,452.310791 
	C215.880081,451.209259 216.182526,447.062042 212.306580,444.552094 
	C208.696884,442.214569 204.595093,440.652679 200.839066,438.521698 
	C195.217575,435.332306 189.159302,432.597748 184.275925,428.493011 
	C176.070297,421.595764 176.836731,411.126587 185.209167,404.392395 
	C197.536942,394.476807 218.561966,398.150604 227.232788,412.103271 
	C223.990616,415.014313 220.682251,417.984772 217.413864,420.919342 
	C214.037643,418.678436 211.101547,416.100006 207.685486,414.660828 
	C204.935364,413.502197 201.561859,413.251434 198.550049,413.527313 
	C197.047653,413.664917 195.020035,415.682526 194.584213,417.230957 
	C194.282913,418.301483 195.981583,420.599976 197.338654,421.347565 
	C201.408829,423.589844 205.852325,425.147797 209.959061,427.332062 
	C214.930099,429.976013 220.203537,432.394196 224.459976,435.966034 
	C232.765869,442.936005 232.226196,454.141418 223.906082,461.118042 
	C214.488373,469.015076 199.886002,469.775940 187.220856,462.955261 
	C185.175812,461.853912 183.287201,460.462097 181.035233,459.002411 
z"/>
<path fill="#38BECD" opacity="1.000000" stroke="none" 
	d="
M558.204590,465.251801 
	C556.444092,460.706146 556.037964,454.772858 553.041016,452.824097 
	C549.726807,450.669067 544.022095,452.382629 539.392761,451.998230 
	C535.533447,451.677765 533.469727,452.745758 532.204712,456.729889 
	C529.162354,466.311798 528.937073,466.247467 518.654907,466.147980 
	C517.178955,466.133698 515.704102,466.011536 513.593811,465.908203 
	C514.177612,463.823608 514.569580,462.096405 515.141785,460.431122 
	C521.525330,441.852875 528.010681,423.309021 534.268982,404.688812 
	C535.328552,401.536163 536.641602,400.211273 540.184753,400.242462 
	C551.852112,400.345215 551.845459,400.184662 555.573059,411.071014 
	C560.912354,426.663788 566.271667,442.249695 571.604614,457.844635 
	C572.457886,460.339783 573.218506,462.866608 574.322266,466.317841 
	C568.546265,466.064880 563.481384,465.843048 558.204590,465.251801 
M545.376038,426.309845 
	C544.956848,425.315002 544.537598,424.320160 543.621765,422.146851 
	C541.765259,428.010284 540.278931,432.704590 538.682678,437.746155 
	C542.500488,437.746155 545.518066,437.746155 548.909790,437.746155 
	C547.732971,433.898468 546.680908,430.458710 545.376038,426.309845 
z"/>
<path fill="#38BECD" opacity="1.000000" stroke="none" 
	d="
M83.825165,417.103027 
	C89.427338,433.467896 94.897820,449.463226 100.600273,466.136841 
	C95.442680,466.136841 91.117836,466.397644 86.860680,465.975647 
	C85.607506,465.851379 84.016045,463.995880 83.481064,462.590607 
	C79.484657,452.093353 79.555603,452.066376 68.222527,452.066315 
	C60.363140,452.066284 60.043678,451.974731 57.867306,459.571320 
	C56.403046,464.682343 53.995628,467.088776 48.506748,466.227875 
	C45.808750,465.804718 42.989525,466.154480 39.562981,466.154480 
	C43.192482,455.455078 46.527531,445.569305 49.900169,435.696381 
	C53.500874,425.155731 57.257771,414.666199 60.679230,404.068054 
	C61.623074,401.144470 63.024342,400.285095 65.994392,400.270172 
	C78.153915,400.209137 78.151169,400.110809 81.924881,411.541443 
	C82.498032,413.277527 83.103157,415.003082 83.825165,417.103027 
M66.621315,432.064178 
	C66.119629,433.867096 65.617943,435.670044 65.066124,437.653137 
	C68.754311,437.653137 71.746719,437.653137 75.297989,437.653137 
	C73.603966,432.565887 72.097687,428.042419 70.591408,423.518982 
	C70.246452,423.528870 69.901505,423.538727 69.556557,423.548615 
	C68.658867,426.137360 67.761177,428.726105 66.621315,432.064178 
z"/>
<path fill="#38BECD" opacity="1.000000" stroke="none" 
	d="
M382.464142,408.515015 
	C389.031281,427.743988 395.448456,446.613068 402.090546,466.143555 
	C397.086029,466.143555 392.764465,466.394012 388.505096,465.989563 
	C387.242218,465.869629 385.582184,464.118286 385.076996,462.754211 
	C381.128784,452.092682 381.180420,452.488983 369.457550,451.891663 
	C363.358856,451.580902 360.027313,453.420837 359.240417,459.327545 
	C358.464355,465.152863 355.303619,467.081451 349.690582,466.219788 
	C347.115845,465.824554 344.430084,466.152527 341.114899,466.152527 
	C342.266296,462.719635 343.184143,459.932251 344.135101,457.156219 
	C350.010681,440.003510 356.078094,422.912903 361.645111,405.660767 
	C363.044434,401.324249 365.028076,399.579163 369.374023,400.323364 
	C370.021179,400.434174 370.703674,400.328369 371.369476,400.341644 
	C381.401642,400.541656 378.745087,398.959869 382.464142,408.515015 
M369.679291,438.071716 
	C371.900940,438.071716 374.122589,438.071716 376.891266,438.071716 
	C375.069916,432.459869 373.550354,427.777863 371.620056,421.830292 
	C369.885559,427.013611 368.438446,430.880554 367.381866,434.851440 
	C367.148804,435.727295 368.299866,436.971405 369.679291,438.071716 
z"/>
<path fill="#38BCCC" opacity="1.000000" stroke="none" 
	d="
M420.533539,419.417603 
	C423.171783,427.452271 425.667572,435.117432 428.163391,442.782623 
	C428.530640,442.798676 428.897888,442.814728 429.265167,442.830750 
	C431.821533,435.164642 434.388641,427.502075 436.930603,419.831177 
	C438.710052,414.461304 440.234131,408.990387 442.355713,403.760712 
	C442.961639,402.267151 445.161560,400.691223 446.795471,400.489624 
	C450.665680,400.012115 454.634766,400.336121 459.299683,400.336121 
	C455.371704,411.872833 451.757141,422.528564 448.114929,433.174835 
	C444.775818,442.935059 441.293274,452.648315 438.120880,462.462097 
	C437.179657,465.373749 435.699158,466.206360 432.756104,466.222473 
	C420.584656,466.289032 420.680878,466.351654 416.808716,454.861603 
	C411.388702,438.778564 405.804413,422.750885 400.303986,406.694885 
	C399.716827,404.980865 399.220337,403.235748 398.350281,400.439728 
	C403.593719,400.439728 408.298615,400.301300 412.979706,400.572937 
	C413.780670,400.619385 414.779785,402.310394 415.175140,403.423584 
	C417.012451,408.596741 418.669525,413.833893 420.533539,419.417603 
z"/>
<path fill="#38BAC9" opacity="1.000000" stroke="none" 
	d="
M513.654419,400.321136 
	C516.365662,400.189484 518.021606,400.568665 517.878723,403.489166 
	C517.709534,406.945953 517.838989,410.417389 517.838989,414.482880 
	C511.192474,414.482880 504.942474,414.482880 498.168427,414.482880 
	C498.168427,431.799316 498.168427,448.522308 498.168427,465.706268 
	C492.952759,465.706268 488.261749,465.706268 482.909851,465.706268 
	C482.909851,448.861237 482.909851,432.000702 482.909851,414.534546 
	C476.032867,414.534546 469.796753,414.534546 463.342773,414.534546 
	C463.342773,409.647400 463.342773,405.378265 463.342773,400.319916 
	C480.046997,400.319916 496.620544,400.319916 513.654419,400.321136 
z"/>
<path fill="#F8FEFE" opacity="1.000000" stroke="none" 
	d="
M324.947296,189.905594 
	C320.492004,189.905594 316.036743,189.905594 310.650482,189.905594 
	C311.603638,183.535324 312.378754,177.714920 313.357025,171.928848 
	C317.345215,148.340775 321.467865,124.775116 325.351990,101.170090 
	C326.000549,97.228569 327.246643,95.295975 331.653198,95.709984 
	C336.435059,96.159248 341.286377,95.869499 346.626129,96.340302 
	C349.656799,110.975266 352.259338,125.156654 354.657166,139.372574 
	C357.495453,156.199570 360.157166,173.056366 362.895386,189.900238 
	C360.757629,189.925415 358.606445,189.806717 356.484741,190.004257 
	C351.277435,190.489059 346.953979,190.125076 346.937836,183.146179 
	C346.935699,182.246353 344.608551,180.940948 343.164764,180.562744 
	C341.480347,180.121521 339.583130,180.492599 336.957153,180.503448 
	C327.090454,179.953766 327.089813,179.953629 325.231445,188.435318 
	C325.124634,188.922760 325.041473,189.415390 324.947296,189.905594 
M335.936127,128.572266 
	C333.735199,140.750443 331.534241,152.928604 329.271393,165.449203 
	C334.776672,165.449203 339.175507,165.449203 344.199707,165.449203 
	C342.089966,153.048813 340.071777,141.111603 337.977814,129.187714 
	C337.903656,128.765381 337.078094,128.474991 335.936127,128.572266 
z"/>
<path fill="#35A3AF" opacity="1.000000" stroke="none" 
	d="
M363.352417,189.922424 
	C360.157166,173.056366 357.495453,156.199570 354.657166,139.372574 
	C352.259338,125.156654 349.656799,110.975266 347.096375,96.380859 
	C356.262878,95.957115 356.366058,95.939102 357.874451,104.577667 
	C362.559357,131.407776 367.146271,158.254990 371.807129,185.089325 
	C372.378937,188.381454 371.617828,190.341415 367.807343,190.002380 
	C366.483459,189.884598 365.142548,189.958328 363.352417,189.922424 
z"/>
<path fill="#3FA7B2" opacity="1.000000" stroke="none" 
	d="
M325.397217,189.930298 
	C325.041473,189.415390 325.124634,188.922760 325.231445,188.435318 
	C327.089813,179.953629 327.090454,179.953766 336.557617,180.664368 
	C336.478333,181.687012 335.532684,182.548233 335.546478,183.393814 
	C335.664764,190.646515 330.851868,190.403107 325.397217,189.930298 
z"/>
<path fill="#020303" opacity="1.000000" stroke="none" 
	d="
M534.099121,239.673492 
	C532.873474,247.375885 528.220215,252.419647 521.935608,254.928131 
	C512.276245,258.783661 502.311737,262.402954 492.137146,264.325073 
	C473.145660,267.912750 453.821198,267.817688 433.958221,267.050171 
	C439.690277,259.025085 445.013489,251.480743 450.474609,244.037567 
	C451.193573,243.057693 452.538483,242.397720 453.726624,241.922089 
	C475.220795,233.317871 496.303528,223.889023 516.168884,210.790909 
	C524.625793,218.821930 534.091736,225.950409 534.099121,239.673492 
z"/>
<path fill="#010303" opacity="1.000000" stroke="none" 
	d="
M190.617523,265.455566 
	C178.096939,263.753754 166.174759,261.498260 155.236053,255.790146 
	C140.096375,247.889847 137.542023,235.366104 148.446060,222.251984 
	C151.826660,218.186172 155.606308,214.452164 158.397598,211.436630 
	C175.289566,219.836884 190.636414,228.684525 206.923065,235.173203 
	C219.361465,240.128693 229.427429,246.547119 235.875183,258.378113 
	C237.431961,261.234589 239.773056,263.663635 242.279938,266.987244 
	C224.715225,267.815277 207.876099,267.394592 190.617523,265.455566 
z"/>
<path fill="#010B0C" opacity="1.000000" stroke="none" 
	d="
M617.666016,417.397461 
	C620.011902,424.188782 617.630493,427.783081 610.976257,427.962982 
	C607.011353,428.070190 603.041077,427.982666 598.666748,427.982666 
	C598.666748,423.545929 598.666748,419.481567 598.666748,414.701843 
	C604.935547,415.184967 611.534241,412.270569 617.666016,417.397461 
z"/>
<path fill="#011619" opacity="1.000000" stroke="none" 
	d="
M545.502441,426.664398 
	C546.680908,430.458710 547.732971,433.898468 548.909790,437.746155 
	C545.518066,437.746155 542.500488,437.746155 538.682678,437.746155 
	C540.278931,432.704590 541.765259,428.010284 543.621765,422.146851 
	C544.537598,424.320160 544.956848,425.315002 545.502441,426.664398 
z"/>
<path fill="#02171A" opacity="1.000000" stroke="none" 
	d="
M66.742401,431.689514 
	C67.761177,428.726105 68.658867,426.137360 69.556557,423.548615 
	C69.901505,423.538727 70.246452,423.528870 70.591408,423.518982 
	C72.097687,428.042419 73.603966,432.565887 75.297989,437.653137 
	C71.746719,437.653137 68.754311,437.653137 65.066124,437.653137 
	C65.617943,435.670044 66.119629,433.867096 66.742401,431.689514 
z"/>
<path fill="#011518" opacity="1.000000" stroke="none" 
	d="
M369.246429,438.058838 
	C368.299866,436.971405 367.148804,435.727295 367.381866,434.851440 
	C368.438446,430.880554 369.885559,427.013611 371.620056,421.830292 
	C373.550354,427.777863 375.069916,432.459869 376.891266,438.071716 
	C374.122589,438.071716 371.900940,438.071716 369.246429,438.058838 
z"/>
<path fill="#42A8B3" opacity="1.000000" stroke="none" 
	d="
M336.269440,128.347687 
	C337.078094,128.474991 337.903656,128.765381 337.977814,129.187714 
	C340.071777,141.111603 342.089966,153.048813 344.199707,165.449203 
	C339.175507,165.449203 334.776672,165.449203 329.271393,165.449203 
	C331.534241,152.928604 333.735199,140.750443 336.269440,128.347687 
z"/>
</svg>