<svg version="1.1" id="Layer_1" xmlns="http://www.w3.org/2000/svg" xmlns:xlink="http://www.w3.org/1999/xlink" x="0px" y="0px"
	 width="100%" viewBox="0 0 356 255" enable-background="new 0 0 356 255" xml:space="preserve">
<path fill="#FDEA82" opacity="1.000000" stroke="none" 
	d="
M256.000000,256.000000 
	C171.097961,256.000000 86.195930,256.000000 1.000000,256.000000 
	C1.000000,214.646240 1.000000,173.291779 1.412858,131.468658 
	C9.001724,130.990463 13.152319,122.770058 20.793522,123.995804 
	C20.872976,124.008545 21.027008,123.765968 21.093569,123.618767 
	C22.704784,120.055756 25.814880,119.839333 29.111637,119.996887 
	C35.100075,120.283112 41.301697,118.431892 46.085163,124.839424 
	C47.860146,127.217056 49.999355,128.793594 50.080425,132.070755 
	C50.124275,133.843399 50.633457,135.740662 51.466816,137.295425 
	C51.836975,137.986038 54.459217,138.300201 54.485764,138.225571 
	C56.117290,133.638596 60.903236,133.983749 64.474663,132.003952 
	C73.885147,134.683624 82.943069,137.313858 91.952454,140.317200 
	C90.675034,143.741119 90.910469,145.742294 94.927879,146.101273 
	C99.020081,146.466949 103.111687,147.159241 107.108131,148.109772 
	C108.586494,148.461380 109.959641,149.793106 111.092087,150.958389 
	C114.211334,154.168106 117.043007,157.664398 120.242332,160.787231 
	C123.534142,164.000320 130.729950,163.674515 129.375809,171.124191 
	C129.278076,171.661835 130.601944,172.532700 131.353943,173.137894 
	C136.243896,177.073135 141.153595,177.305740 147.475281,175.712204 
	C156.851761,173.348618 160.129837,174.520325 160.011017,182.420715 
	C159.945969,186.746552 160.225754,191.089264 159.938232,195.396881 
	C159.639038,199.878738 161.546173,201.288681 165.797501,201.060623 
	C170.609375,200.802521 175.454056,200.840775 180.270309,201.060349 
	C186.095322,201.325943 186.621826,202.628571 186.299500,208.353363 
	C186.119690,211.547150 183.748474,215.683594 188.260101,218.473358 
	C185.400711,227.360703 182.570312,235.860733 179.446045,245.243256 
	C183.645874,244.248245 188.059082,247.331558 189.207306,242.047043 
	C190.304016,236.999649 193.443665,236.910492 197.553131,236.746841 
	C201.698456,236.581772 203.380112,238.093933 204.409180,241.925308 
	C205.500183,245.987350 210.820740,246.493454 214.124146,243.059433 
	C217.492752,242.639709 220.425049,242.255432 223.699463,242.004425 
	C227.346619,246.430054 233.050140,246.366058 236.475037,242.002167 
	C240.588989,242.604050 244.300232,243.833023 247.951248,243.674576 
	C254.810394,243.376907 255.957199,244.086212 255.998428,251.043091 
	C256.008240,252.695343 255.999954,254.347687 256.000000,256.000000 
M57.835781,228.639740 
	C60.752522,233.285141 63.754387,237.879883 66.558388,242.592346 
	C68.704948,246.199905 72.155205,245.207306 75.028679,244.733749 
	C75.993233,244.574814 77.037651,241.469879 77.075424,239.690872 
	C77.276627,230.215591 77.092606,220.732773 77.216141,211.254822 
	C77.254204,208.334656 76.419342,207.074722 73.279572,207.095642 
	C70.227257,207.115997 68.487045,207.775879 68.823235,211.246094 
	C69.014801,213.223465 68.863655,215.234192 68.864273,217.229889 
	C68.865395,220.824341 68.864594,224.418793 68.864594,228.013245 
	C68.302902,228.083923 67.741203,228.154602 67.179512,228.225281 
	C65.820183,226.194214 64.417801,224.190414 63.110565,222.126373 
	C60.442413,217.913544 58.312462,213.216782 54.983170,209.625763 
	C53.304005,207.814606 49.509747,207.744919 46.619793,207.498505 
	C46.154987,207.458862 44.919182,210.615265 44.887848,212.309906 
	C44.715721,221.619965 44.882206,230.935852 44.766296,240.247650 
	C44.728146,243.312408 45.049320,245.201584 48.956665,245.200485 
	C52.737316,245.199432 53.367729,243.581253 53.258068,240.375320 
	C53.073795,234.987915 53.207626,229.589645 53.207626,224.195938 
	C53.629955,224.069397 54.052288,223.942841 54.474617,223.816299 
	C55.462048,225.215134 56.449478,226.613968 57.835781,228.639740 
M145.225266,233.663376 
	C145.226303,235.993759 145.350250,238.332214 145.197723,240.652496 
	C145.000336,243.655411 145.726212,245.263199 149.263474,245.197601 
	C152.505630,245.137482 154.108887,244.527679 154.019867,240.795990 
	C153.793686,231.313400 153.885956,221.821609 153.961472,212.334381 
	C153.986023,209.250671 153.998688,206.968933 149.649887,206.985458 
	C145.484222,207.001312 144.973373,208.899307 145.215881,212.199722 
	C145.386139,214.516830 145.449463,216.887421 145.129913,219.173950 
	C144.988708,220.184204 143.801590,221.824539 143.053391,221.844666 
	C138.939270,221.955399 134.558105,222.381882 130.839111,221.075638 
	C129.627777,220.650177 130.128418,215.333878 129.861435,212.253159 
	C129.818481,211.757568 129.808777,211.249603 129.864441,210.756470 
	C130.253204,207.313217 128.116425,207.099060 125.495216,207.078735 
	C122.816444,207.057983 121.054749,207.402878 121.121307,210.798019 
	C121.284386,219.117416 121.163681,227.442337 121.158356,235.765045 
	C121.156479,238.698975 121.158058,241.632889 121.158058,244.427658 
	C129.656769,245.864960 129.520401,245.676575 130.043411,238.709702 
	C130.263718,235.775070 126.999397,230.798965 133.057663,230.027496 
	C136.641876,229.571091 140.357773,230.005234 143.995087,230.287994 
	C144.459366,230.324066 144.806412,231.868332 145.225266,233.663376 
M94.761192,218.676392 
	C92.991623,213.732162 96.844513,214.019180 99.295967,214.561768 
	C102.085014,215.179108 104.593887,217.062256 107.243362,218.404755 
	C113.592033,213.832397 113.513908,211.764069 106.664398,208.247559 
	C101.059349,205.369949 95.408432,205.503677 89.971649,208.685547 
	C83.918854,212.227951 83.126060,219.146652 88.482567,223.632645 
	C91.113808,225.836243 94.396866,227.277878 97.436539,228.971756 
	C99.467369,230.103455 101.697922,230.907593 103.624435,232.182663 
	C104.596687,232.826141 105.895889,234.539261 105.629372,235.153580 
	C105.130119,236.304352 103.525230,237.832809 102.510986,237.742111 
	C99.460541,237.469360 96.411736,236.679672 93.484802,235.718536 
	C91.832069,235.175827 90.420219,233.899567 88.624420,232.782349 
	C87.242561,235.679794 81.880020,237.371567 86.339500,241.002045 
	C91.536606,245.232986 97.774406,247.187546 104.589256,245.413422 
	C109.523697,244.128845 113.666496,241.615036 114.439445,236.061661 
	C115.199974,230.597549 111.714882,227.395874 107.418373,225.066696 
	C103.480881,222.932159 99.371223,221.115219 94.761192,218.676392 
M34.437393,231.019943 
	C32.111721,224.248062 29.601833,217.531677 27.537804,210.680969 
	C26.500114,207.236786 24.275633,207.125397 21.439724,207.089401 
	C18.680033,207.054398 16.804348,207.452026 15.827621,210.590271 
	C13.305082,218.695236 10.395508,226.679443 7.663510,234.719696 
	C6.568656,237.941864 5.534027,241.184479 4.412504,244.598862 
	C9.851327,245.636536 13.880864,245.815628 15.272874,239.492493 
	C15.547503,238.245026 19.069866,237.191330 21.180853,236.999619 
	C23.893988,236.753220 27.096996,235.781403 28.612906,239.942032 
	C30.764477,245.847351 32.197517,246.241821 38.794853,244.005127 
	C37.433388,239.926071 36.070522,235.842804 34.437393,231.019943 
z"/>
<path fill="#FFF4A5" opacity="1.000000" stroke="none" 
	d="
M357.000000,112.000000 
	C357.000000,147.687561 357.000000,183.375122 356.648865,219.482086 
	C354.564728,217.421478 351.700012,215.090500 351.349396,212.428406 
	C350.739197,207.795090 350.379944,203.663269 345.907745,200.910507 
	C345.068024,200.393631 345.057678,198.177658 345.037476,196.740509 
	C344.937134,189.603058 344.701874,183.137054 337.975006,177.840454 
	C333.423218,174.256470 331.511749,167.538452 325.046539,165.433853 
	C322.820496,164.709213 320.999451,162.555573 318.770538,162.062881 
	C314.003937,161.009201 311.580414,158.935577 311.867432,153.607864 
	C312.084412,149.580078 312.563354,144.134125 310.330383,141.711700 
	C305.989838,137.002853 305.700073,132.081909 306.045715,126.620689 
	C306.285767,122.828400 304.979065,120.531746 301.117432,119.586945 
	C304.702576,106.815422 298.126831,98.215744 289.662445,90.075211 
	C299.082642,81.137054 306.418732,71.337021 299.808136,58.342236 
	C294.175629,47.270077 282.888611,44.643185 271.338074,42.087139 
	C271.974030,44.580872 272.417328,46.319141 272.592133,48.295456 
	C270.715302,48.987671 269.106995,49.441841 267.564941,49.502972 
	C266.763123,46.802795 266.443176,44.000114 264.905060,42.298752 
	C262.261566,39.374763 258.858307,37.137691 255.825592,34.178520 
	C255.638428,28.709816 254.502289,24.479446 249.083572,22.170250 
	C247.024612,21.292818 245.993011,18.215427 244.217087,16.412676 
	C241.674606,13.831761 238.910736,9.504755 236.184845,9.461186 
	C229.711288,9.357717 228.220398,6.237583 228.000000,1.000000 
	C244.020889,1.000000 260.041779,1.000000 276.598572,1.336829 
	C278.612396,3.797704 279.847412,6.156506 281.622375,7.993528 
	C284.666168,11.143688 287.593445,15.415660 291.388336,16.605433 
	C297.840729,18.628386 297.966705,23.207359 299.161987,28.164379 
	C299.926880,31.336451 301.433502,35.541031 303.894043,36.833370 
	C308.596100,39.303020 309.036530,42.655846 309.125580,47.026958 
	C309.158722,48.653118 310.419403,51.500401 311.435120,51.649754 
	C316.459106,52.388477 319.104706,55.763134 320.743866,59.751118 
	C322.738922,64.605133 325.613373,66.878098 330.938812,66.059425 
	C333.308136,65.695198 335.661041,65.971237 335.982330,69.321091 
	C336.581635,75.569527 337.296051,81.807564 338.033173,88.041573 
	C338.164886,89.155403 338.299194,90.584442 339.010040,91.260277 
	C342.278809,94.368065 345.799652,97.209045 349.121765,100.263535 
	C350.033997,101.102264 350.573730,102.347038 351.280579,103.408035 
	C353.188141,106.271278 355.093658,109.135918 357.000000,112.000000 
z"/>
<path fill="#FDE97F" opacity="1.000000" stroke="none" 
	d="
M223.357361,241.871140 
	C220.425049,242.255432 217.492752,242.639709 213.870728,242.800598 
	C211.821884,238.047440 210.462753,233.517670 209.232422,228.859100 
	C209.167328,228.486893 208.973434,228.243469 208.569824,227.705139 
	C206.641571,222.423431 204.822739,217.468185 203.240936,212.438400 
	C202.239075,209.252640 201.245087,207.041382 196.998596,206.949036 
	C192.494919,206.851120 191.425354,209.263214 190.421814,212.583084 
	C189.854233,214.460724 189.009186,216.254501 188.289108,218.086044 
	C183.748474,215.683594 186.119690,211.547150 186.299500,208.353363 
	C186.621826,202.628571 186.095322,201.325943 180.270309,201.060349 
	C175.454056,200.840775 170.609375,200.802521 165.797501,201.060623 
	C161.546173,201.288681 159.639038,199.878738 159.938232,195.396881 
	C160.225754,191.089264 159.945969,186.746552 160.011017,182.420715 
	C160.129837,174.520325 156.851761,173.348618 147.475281,175.712204 
	C141.153595,177.305740 136.243896,177.073135 131.353943,173.137894 
	C130.601944,172.532700 129.278076,171.661835 129.375809,171.124191 
	C130.729950,163.674515 123.534142,164.000320 120.242332,160.787231 
	C117.043007,157.664398 114.211334,154.168106 111.092087,150.958389 
	C109.959641,149.793106 108.586494,148.461380 107.108131,148.109772 
	C103.111687,147.159241 99.020081,146.466949 94.927879,146.101273 
	C90.910469,145.742294 90.675034,143.741119 92.381027,140.294739 
	C94.280434,140.016327 95.702728,140.133453 97.428268,140.463516 
	C99.563812,140.751572 101.396103,140.826706 103.680725,140.851318 
	C111.789673,140.851791 119.453751,140.732208 127.098007,141.066193 
	C129.171906,141.156799 131.644775,142.123657 133.155014,143.527130 
	C145.433502,154.937561 157.983078,165.927673 172.666183,174.279922 
	C176.201889,176.291168 179.025482,176.585800 182.233200,174.121841 
	C192.766373,166.030975 203.339828,157.992523 214.211761,150.085938 
	C220.276901,155.318954 226.075424,160.347733 231.761337,165.500763 
	C235.129395,168.553177 238.411057,171.713745 241.564056,174.987045 
	C244.711014,178.254059 247.615021,181.753708 250.692856,185.089264 
	C252.237579,186.763336 253.934341,188.296921 255.558044,189.898422 
	C258.556671,192.855972 261.166779,196.439972 264.658447,198.599152 
	C268.080688,200.715424 270.110535,203.203339 270.553650,206.994034 
	C265.436554,207.102570 260.783325,207.137970 256.130066,207.143463 
	C249.457504,207.151337 248.858841,208.040466 251.122971,214.893723 
	C252.379303,214.970276 253.695404,215.090836 255.013687,215.123993 
	C261.743896,215.293274 261.708923,215.285583 261.748199,222.135666 
	C261.791992,229.776825 261.908234,237.417542 262.065491,245.194427 
	C262.138031,245.330383 262.521698,245.519806 262.521698,245.519806 
	C262.521698,245.519806 262.921936,245.337189 263.365112,245.245087 
	C265.738281,245.036255 267.668304,244.919540 270.096252,244.772720 
	C270.096252,238.164795 270.097595,232.039886 270.095978,225.914993 
	C270.093170,215.162827 270.092407,215.162827 281.197174,215.342926 
	C281.503540,215.211304 281.672760,214.987152 281.810638,214.755463 
	C281.779266,214.747910 281.753479,214.688766 282.115906,214.802032 
	C284.445038,215.974304 286.411713,217.033310 288.346863,218.340332 
	C288.315308,218.588333 288.041901,219.006958 287.893555,219.075180 
	C287.474121,219.411133 287.488037,219.677338 287.760590,220.290863 
	C286.908661,222.787506 286.083130,224.935349 285.082184,227.122162 
	C284.814728,227.233887 284.633514,227.331741 284.645752,227.375168 
	C284.704987,227.585541 284.816101,227.781296 284.902283,228.359360 
	C283.205566,233.892914 281.515320,239.049362 279.816345,244.232544 
	C287.175537,246.039886 287.211304,246.018906 291.311829,237.884766 
	C291.678802,237.650543 291.839630,237.466354 292.402161,237.115784 
	C293.502350,236.953522 294.158051,236.934265 294.811157,236.882553 
	C299.579803,236.505005 304.069397,236.406113 304.850098,242.924240 
	C304.949280,243.752411 306.888702,244.763016 308.095886,244.963104 
	C310.003540,245.279312 312.013062,244.980972 314.180634,245.208252 
	C317.921173,248.982529 321.460602,252.491272 325.000000,256.000000 
	C302.312439,256.000000 279.624878,256.000000 256.468658,256.000000 
	C255.999954,254.347687 256.008240,252.695343 255.998428,251.043091 
	C255.957199,244.086212 254.810394,243.376907 247.951248,243.674576 
	C244.300232,243.833023 240.588989,242.604050 236.475464,241.627151 
	C239.805222,230.158203 243.564438,219.063400 247.351303,207.887024 
	C239.170135,206.258804 238.941818,206.371674 236.609741,213.216064 
	C235.538635,216.359665 234.560730,219.535019 233.489410,222.678528 
	C232.528915,225.496826 231.498260,228.291214 230.498550,231.096146 
	C227.345642,224.894180 225.267838,218.960297 223.363586,212.971222 
	C221.275009,206.402481 220.589264,205.995697 213.144714,207.998535 
	C216.549789,219.292252 219.953568,230.581696 223.357361,241.871140 
z"/>
<path fill="#FDE77A" opacity="1.000000" stroke="none" 
	d="
M1.000000,65.000000 
	C1.000000,43.740417 1.000000,22.480835 1.000000,1.000000 
	C21.687035,1.000000 42.374859,1.000000 63.579689,1.342054 
	C71.024117,8.880223 77.847069,16.181099 84.918564,23.232735 
	C89.087830,27.390293 93.651077,31.152769 97.854874,35.369476 
	C95.092957,37.747765 92.121033,39.529461 90.060600,42.054836 
	C88.477684,43.994953 87.023651,46.976250 87.263237,49.315166 
	C88.800003,64.317291 92.754379,78.743614 99.292786,92.362648 
	C100.198380,94.248947 102.160835,96.142410 104.086082,96.936363 
	C112.845062,100.548485 121.894623,103.468323 130.596252,107.204132 
	C141.940292,112.074387 153.317078,112.784325 165.105469,109.294403 
	C167.952850,108.451447 170.990051,108.249664 173.955933,108.155830 
	C175.106186,110.989403 176.162292,113.460815 177.398163,115.838799 
	C178.494553,117.948387 179.790604,119.954201 180.615509,122.106392 
	C176.195908,121.840515 172.057343,121.923752 168.139160,121.035225 
	C141.126282,114.909508 114.672668,107.085335 90.064522,94.005951 
	C81.204834,89.296974 72.786163,83.943665 66.451370,75.923729 
	C61.148781,69.210594 62.207806,62.635300 69.488091,58.251942 
	C72.171577,56.636253 75.267494,55.719631 78.096954,54.325184 
	C79.183350,53.789764 80.620972,52.980930 80.912323,52.002880 
	C81.793503,49.044914 82.191414,45.942982 83.074814,41.353313 
	C76.316261,44.008339 70.242867,45.721252 64.834648,48.658798 
	C53.561474,54.781971 47.272614,67.392593 55.562401,80.000168 
	C53.031429,78.467331 50.788658,77.046936 48.771221,75.357452 
	C47.835049,74.573463 47.474991,72.482101 46.616894,72.331314 
	C42.864449,71.671898 42.849407,68.661736 41.975494,66.058144 
	C41.517033,64.692291 40.865524,63.327744 40.021469,62.165806 
	C36.356865,57.121025 32.705471,52.056564 28.774708,47.222523 
	C27.831400,46.062450 25.819223,45.227619 24.329855,45.272797 
	C23.520962,45.297337 22.162863,47.478619 22.142824,48.704891 
	C22.109087,50.769432 22.955959,52.845486 23.410387,54.921513 
	C24.238993,58.706936 24.977200,62.526161 21.534731,65.505333 
	C19.654564,67.132462 17.704699,68.733208 15.587042,70.017303 
	C13.232894,71.444809 9.986308,72.386414 9.071086,68.973373 
	C7.730939,63.975723 4.914016,63.822704 1.000000,65.000000 
z"/>
<path fill="#FEF39E" opacity="1.000000" stroke="none" 
	d="
M301.087189,119.998260 
	C304.979065,120.531746 306.285767,122.828400 306.045715,126.620689 
	C305.700073,132.081909 305.989838,137.002853 310.330383,141.711700 
	C312.563354,144.134125 312.084412,149.580078 311.867432,153.607864 
	C311.580414,158.935577 314.003937,161.009201 318.770538,162.062881 
	C320.999451,162.555573 322.820496,164.709213 325.046539,165.433853 
	C331.511749,167.538452 333.423218,174.256470 337.975006,177.840454 
	C344.701874,183.137054 344.937134,189.603058 345.037476,196.740509 
	C345.057678,198.177658 345.068024,200.393631 345.907745,200.910507 
	C350.379944,203.663269 350.739197,207.795090 351.349396,212.428406 
	C351.700012,215.090500 354.564728,217.421478 356.648865,219.950745 
	C357.000000,232.000015 357.000000,244.000046 357.000000,256.000000 
	C355.633698,256.000000 354.316803,256.000000 352.499329,255.599045 
	C350.720398,251.811310 349.442047,248.424530 348.149689,244.658844 
	C346.417206,240.523407 344.698761,236.766922 343.234894,232.765045 
	C343.588287,231.594986 343.687073,230.670319 343.832428,229.774719 
	C343.878998,229.803802 343.808105,229.887695 344.061005,229.799103 
	C344.531677,229.436050 344.749420,229.161560 345.134705,228.584717 
	C349.175018,224.104309 350.237061,218.999863 347.972107,214.079620 
	C345.688995,209.119919 341.049957,206.823715 335.357727,207.123596 
	C332.722565,207.262436 330.073761,207.140869 327.431152,207.141418 
	C320.237885,207.142944 320.237885,207.143799 319.262238,213.993530 
	C315.261230,213.994965 311.366089,214.878662 310.025330,209.804138 
	C309.767548,208.828537 308.062775,208.124115 306.908905,207.516006 
	C302.386444,205.132675 302.301727,204.353683 305.874603,200.980179 
	C306.825165,200.082642 307.464111,198.633453 307.725922,197.332794 
	C307.836731,196.782425 306.234711,195.273712 306.043213,195.376633 
	C304.890198,195.996323 303.945984,196.990921 302.882172,197.794205 
	C301.910095,198.528244 300.572906,199.948425 299.933990,199.697556 
	C298.790558,199.248581 297.310425,197.788773 297.284790,196.719940 
	C297.214508,193.793869 297.868500,190.855438 298.157959,187.914246 
	C298.436798,185.081223 298.618500,182.238663 298.842896,179.400284 
	C298.278625,179.323776 297.714355,179.247269 297.150085,179.170761 
	C296.788483,179.815948 296.091675,180.475296 296.118225,181.104111 
	C296.332703,186.185776 293.698486,186.080093 290.125610,184.580048 
	C289.220276,184.199982 288.166992,184.182693 287.241791,183.837616 
	C283.343872,182.383835 282.264923,178.176559 284.460266,174.622208 
	C285.268463,173.313660 285.889801,170.750229 285.191010,169.849548 
	C282.310669,166.137177 279.398621,162.010834 275.518036,159.643448 
	C272.033478,157.517670 269.696289,155.315994 269.143372,151.505219 
	C268.680328,148.313705 267.009674,146.900909 264.005005,146.475983 
	C262.213287,146.222610 260.375732,145.916336 258.706329,145.259079 
	C255.808014,144.117966 255.171265,142.361832 258.351440,140.132584 
	C262.061707,139.667953 265.374298,139.470566 268.608276,138.858002 
	C281.629883,136.391602 294.241058,133.133240 301.087189,119.998260 
z"/>
<path fill="#FEE87E" opacity="1.000000" stroke="none" 
	d="
M1.000000,65.468658 
	C4.914016,63.822704 7.730939,63.975723 9.071086,68.973373 
	C9.986308,72.386414 13.232894,71.444809 15.587042,70.017303 
	C17.704699,68.733208 19.654564,67.132462 21.534731,65.505333 
	C24.977200,62.526161 24.238993,58.706936 23.410387,54.921513 
	C22.955959,52.845486 22.109087,50.769432 22.142824,48.704891 
	C22.162863,47.478619 23.520962,45.297337 24.329855,45.272797 
	C25.819223,45.227619 27.831400,46.062450 28.774708,47.222523 
	C32.705471,52.056564 36.356865,57.121025 40.021469,62.165806 
	C40.865524,63.327744 41.517033,64.692291 41.975494,66.058144 
	C42.849407,68.661736 42.864449,71.671898 46.616894,72.331314 
	C47.474991,72.482101 47.835049,74.573463 48.771221,75.357452 
	C50.788658,77.046936 53.031429,78.467331 55.789246,80.249619 
	C58.072575,82.567390 59.494728,84.929672 61.481903,86.632629 
	C64.786598,89.464661 64.210045,91.506592 61.269657,94.222710 
	C50.447308,104.219658 48.015961,121.164200 64.122101,131.954514 
	C60.903236,133.983749 56.117290,133.638596 54.485764,138.225571 
	C54.459217,138.300201 51.836975,137.986038 51.466816,137.295425 
	C50.633457,135.740662 50.124275,133.843399 50.080425,132.070755 
	C49.999355,128.793594 47.860146,127.217056 46.085163,124.839424 
	C41.301697,118.431892 35.100075,120.283112 29.111637,119.996887 
	C25.814880,119.839333 22.704784,120.055756 21.093569,123.618767 
	C21.027008,123.765968 20.872976,124.008545 20.793522,123.995804 
	C13.152319,122.770058 9.001724,130.990463 1.412858,131.000000 
	C1.000000,109.312439 1.000000,87.624878 1.000000,65.468658 
z"/>
<path fill="#FEF6AC" opacity="1.000000" stroke="none" 
	d="
M357.000000,111.531342 
	C355.093658,109.135918 353.188141,106.271278 351.280579,103.408035 
	C350.573730,102.347038 350.033997,101.102264 349.121765,100.263535 
	C345.799652,97.209045 342.278809,94.368065 339.010040,91.260277 
	C338.299194,90.584442 338.164886,89.155403 338.033173,88.041573 
	C337.296051,81.807564 336.581635,75.569527 335.982330,69.321091 
	C335.661041,65.971237 333.308136,65.695198 330.938812,66.059425 
	C325.613373,66.878098 322.738922,64.605133 320.743866,59.751118 
	C319.104706,55.763134 316.459106,52.388477 311.435120,51.649754 
	C310.419403,51.500401 309.158722,48.653118 309.125580,47.026958 
	C309.036530,42.655846 308.596100,39.303020 303.894043,36.833370 
	C301.433502,35.541031 299.926880,31.336451 299.161987,28.164379 
	C297.966705,23.207359 297.840729,18.628386 291.388336,16.605433 
	C287.593445,15.415660 284.666168,11.143688 281.622375,7.993528 
	C279.847412,6.156506 278.612396,3.797704 277.067230,1.336829 
	C288.020905,1.000000 299.041779,1.000000 310.597717,1.336282 
	C318.705475,8.501827 327.633545,13.965378 332.757599,23.260784 
	C334.094696,25.686417 335.209137,28.419039 337.121948,30.304501 
	C341.018799,34.145672 345.231018,37.720867 349.634521,40.970375 
	C351.706573,42.499405 354.521637,43.021587 357.000000,44.000004 
	C357.000000,66.354225 357.000000,88.708458 357.000000,111.531342 
z"/>
<path fill="#FDED8E" opacity="1.000000" stroke="none" 
	d="
M72.000000,1.000000 
	C92.687561,1.000000 113.375122,1.000000 134.605865,1.337865 
	C138.450363,5.177115 141.751694,8.678500 144.769287,12.388655 
	C131.996613,18.084270 119.507683,23.571115 106.805992,28.778057 
	C105.744133,27.122210 104.510437,25.846949 104.118889,24.351234 
	C102.996384,20.063253 101.402916,20.317480 99.003944,23.409353 
	C96.477196,26.665924 93.395142,26.973614 90.473419,24.164959 
	C88.897820,22.650341 88.032303,20.421057 86.706467,18.617065 
	C84.628700,15.789966 82.847435,11.252430 80.201279,10.641488 
	C74.416962,9.306009 72.748749,5.890152 72.000000,1.000000 
z"/>
<path fill="#FAF2A0" opacity="1.000000" stroke="none" 
	d="
M227.531342,1.000000 
	C228.220398,6.237583 229.711288,9.357717 236.184845,9.461186 
	C238.910736,9.504755 241.674606,13.831761 244.217087,16.412676 
	C245.993011,18.215427 247.024612,21.292818 249.083572,22.170250 
	C254.502289,24.479446 255.638428,28.709816 255.485626,34.048180 
	C236.597366,22.210352 216.379868,13.975093 195.171295,8.011611 
	C185.937286,5.415164 176.745087,2.016201 166.942535,5.453264 
	C166.589386,3.737428 166.294693,2.368713 166.000000,0.999999 
	C186.354233,1.000000 206.708450,1.000000 227.531342,1.000000 
z"/>
<path fill="#FFF8B4" opacity="1.000000" stroke="none" 
	d="
M357.000000,43.531368 
	C354.521637,43.021587 351.706573,42.499405 349.634521,40.970375 
	C345.231018,37.720867 341.018799,34.145672 337.121948,30.304501 
	C335.209137,28.419039 334.094696,25.686417 332.757599,23.260784 
	C327.633545,13.965378 318.705475,8.501827 311.066406,1.336282 
	C319.020905,1.000000 327.041809,1.000000 335.579163,1.348499 
	C337.811768,7.025174 344.850555,9.098509 344.675323,15.673478 
	C344.664459,16.081964 346.233246,16.651365 347.132782,16.944008 
	C350.406738,18.009111 353.708649,18.988377 357.000000,20.000002 
	C357.000000,27.687576 357.000000,35.375153 357.000000,43.531368 
z"/>
<path fill="#F8EE99" opacity="1.000000" stroke="none" 
	d="
M351.000000,256.000000 
	C344.312347,256.000000 337.624725,256.000000 330.468048,255.615982 
	C329.334656,253.656723 328.648712,252.090164 328.011719,250.503922 
	C327.319427,248.779922 326.672577,247.037659 326.363953,245.171753 
	C327.358795,244.012436 328.416565,243.032669 328.540222,241.946548 
	C328.762695,239.991913 328.165802,237.942139 328.402039,235.991547 
	C328.598145,234.372177 329.499512,232.838226 330.088470,231.266418 
	C331.556305,232.367447 333.308807,233.240799 334.418457,234.628296 
	C335.744995,236.286942 336.758301,238.299850 337.484985,240.311829 
	C338.796570,243.943375 341.224518,245.556931 345.014709,245.650635 
	C347.016785,249.331512 349.008392,252.665756 351.000000,256.000000 
z"/>
<path fill="#FDEB84" opacity="1.000000" stroke="none" 
	d="
M71.555832,1.000000 
	C72.748749,5.890152 74.416962,9.306009 80.201279,10.641488 
	C82.847435,11.252430 84.628700,15.789966 86.706467,18.617065 
	C88.032303,20.421057 88.897820,22.650341 90.473419,24.164959 
	C93.395142,26.973614 96.477196,26.665924 99.003944,23.409353 
	C101.402916,20.317480 102.996384,20.063253 104.118889,24.351234 
	C104.510437,25.846949 105.744133,27.122210 106.680664,29.090137 
	C103.857773,31.485725 100.947449,33.289326 98.037132,35.092926 
	C93.651077,31.152769 89.087830,27.390293 84.918564,23.232735 
	C77.847069,16.181099 71.024117,8.880223 64.048347,1.342054 
	C66.370560,1.000000 68.741112,1.000000 71.555832,1.000000 
z"/>
<path fill="#FFF8BB" opacity="1.000000" stroke="none" 
	d="
M357.000000,19.530626 
	C353.708649,18.988377 350.406738,18.009111 347.132782,16.944008 
	C346.233246,16.651365 344.664459,16.081964 344.675323,15.673478 
	C344.850555,9.098509 337.811768,7.025174 336.047791,1.348499 
	C342.922241,1.000000 349.844513,1.000000 357.000000,1.000000 
	C357.000000,7.018423 357.000000,13.039836 357.000000,19.530626 
z"/>
<path fill="#FAEF96" opacity="1.000000" stroke="none" 
	d="
M165.531342,0.999999 
	C166.294693,2.368713 166.589386,3.737428 166.601257,5.635281 
	C159.229980,8.169573 152.141495,10.174728 145.053024,12.179884 
	C141.751694,8.678500 138.450363,5.177115 135.074524,1.337865 
	C145.020889,1.000000 155.041794,1.000000 165.531342,0.999999 
z"/>
<path fill="#F8EA8D" opacity="1.000000" stroke="none" 
	d="
M326.005890,245.303360 
	C326.672577,247.037659 327.319427,248.779922 328.011719,250.503922 
	C328.648712,252.090164 329.334656,253.656723 329.999512,255.615982 
	C328.611115,256.000000 327.222198,256.000000 325.416656,256.000000 
	C321.460602,252.491272 317.921173,248.982529 314.164734,244.828796 
	C313.185852,241.479858 312.423981,238.775879 312.118164,236.054443 
	C314.945557,236.021622 317.316925,236.006302 319.779724,236.436340 
	C319.910583,241.149796 318.884308,246.194229 326.005890,245.303360 
z"/>
<path fill="#F8F09D" opacity="1.000000" stroke="none" 
	d="
M351.250000,256.000000 
	C349.008392,252.665756 347.016785,249.331512 345.400330,245.553619 
	C346.571533,245.085922 347.367615,245.061844 348.163696,245.037766 
	C349.442047,248.424530 350.720398,251.811310 351.999390,255.599045 
	C352.000000,256.000000 351.500000,256.000000 351.250000,256.000000 
z"/>
<path fill="#A5E2E8" opacity="1.000000" stroke="none" 
	d="
M64.474663,132.003952 
	C48.015961,121.164200 50.447308,104.219658 61.269657,94.222710 
	C64.210045,91.506592 64.786598,89.464661 61.481903,86.632629 
	C59.494728,84.929672 58.072575,82.567390 56.169655,80.251953 
	C47.272614,67.392593 53.561474,54.781971 64.834648,48.658798 
	C70.242867,45.721252 76.316261,44.008339 83.074814,41.353313 
	C82.191414,45.942982 81.793503,49.044914 80.912323,52.002880 
	C80.620972,52.980930 79.183350,53.789764 78.096954,54.325184 
	C75.267494,55.719631 72.171577,56.636253 69.488091,58.251942 
	C62.207806,62.635300 61.148781,69.210594 66.451370,75.923729 
	C72.786163,83.943665 81.204834,89.296974 90.064522,94.005951 
	C114.672668,107.085335 141.126282,114.909508 168.139160,121.035225 
	C172.057343,121.923752 176.195908,121.840515 181.015106,122.127022 
	C184.847443,121.313217 187.897125,120.579353 191.341629,119.848892 
	C203.548080,116.373077 215.359711,112.893867 227.557678,109.343674 
	C237.735504,105.248581 247.527008,101.224472 257.676208,97.166420 
	C267.946564,92.729691 277.286774,87.438400 284.976654,79.623428 
	C294.858215,69.581131 293.099457,60.887768 280.133392,55.579544 
	C279.519897,55.328388 278.898193,55.022671 278.253906,54.933701 
	C274.217163,54.376263 272.641083,51.931259 272.860626,48.057415 
	C272.417328,46.319141 271.974030,44.580872 271.338074,42.087139 
	C282.888611,44.643185 294.175629,47.270077 299.808136,58.342236 
	C306.418732,71.337021 299.082642,81.137054 289.662445,90.075211 
	C298.126831,98.215744 304.702576,106.815422 301.117432,119.586945 
	C294.241058,133.133240 281.629883,136.391602 268.608276,138.858002 
	C265.374298,139.470566 262.061707,139.667953 257.919922,140.080597 
	C250.027390,140.382782 243.000183,140.660522 235.595657,140.893784 
	C234.212173,140.863785 233.206009,140.878265 231.851929,140.686554 
	C226.219498,139.087204 221.879807,140.331970 218.528030,144.849777 
	C217.169159,146.681396 215.451950,148.247177 213.897812,149.933929 
	C203.339828,157.992523 192.766373,166.030975 182.233200,174.121841 
	C179.025482,176.585800 176.201889,176.291168 172.666183,174.279922 
	C157.983078,165.927673 145.433502,154.937561 133.155014,143.527130 
	C131.644775,142.123657 129.171906,141.156799 127.098007,141.066193 
	C119.453751,140.732208 111.789673,140.851791 103.347733,140.641052 
	C100.749954,140.404388 98.937492,140.327484 97.125023,140.250595 
	C95.702728,140.133453 94.280434,140.016327 92.429565,139.921631 
	C82.943069,137.313858 73.885147,134.683624 64.474663,132.003952 
M255.606888,129.146362 
	C255.606888,129.146362 256.008087,129.107208 256.917542,129.151291 
	C264.540436,127.748451 272.241333,126.658989 279.748413,124.790794 
	C282.814423,124.027794 285.748047,121.916893 288.227997,119.813370 
	C291.612823,116.942337 292.471466,112.483650 290.523987,108.893959 
	C288.224731,104.655853 284.520477,101.163422 281.263733,97.491043 
	C280.986725,97.178688 279.405853,97.786629 278.577271,98.236748 
	C272.030029,101.793472 265.518433,105.415741 258.273254,109.103020 
	C247.500580,112.491966 238.257721,117.680077 234.047501,129.574203 
	C241.046494,129.574203 247.600677,129.574203 254.562836,129.564804 
	C254.830780,129.465790 255.047134,129.299500 255.606888,129.146362 
M74.055351,124.594582 
	C89.129898,130.228088 104.756569,130.256119 121.794731,129.799133 
	C116.220413,122.711807 113.339912,115.429466 104.750435,112.456924 
	C96.496719,109.600594 88.753204,105.152725 80.997124,101.008179 
	C73.000145,96.734894 71.705673,96.839882 66.419952,104.386635 
	C65.850166,105.200142 65.375816,106.086510 64.914658,106.969109 
	C61.841957,112.849754 63.067677,117.957695 68.544815,121.667297 
	C70.049675,122.686516 71.753418,123.412086 74.055351,124.594582 
z"/>
<path fill="#3FC3D0" opacity="1.000000" stroke="none" 
	d="
M57.636345,228.326263 
	C56.449478,226.613968 55.462048,225.215134 54.474617,223.816299 
	C54.052288,223.942841 53.629955,224.069397 53.207626,224.195938 
	C53.207626,229.589645 53.073795,234.987915 53.258068,240.375320 
	C53.367729,243.581253 52.737316,245.199432 48.956665,245.200485 
	C45.049320,245.201584 44.728146,243.312408 44.766296,240.247650 
	C44.882206,230.935852 44.715721,221.619965 44.887848,212.309906 
	C44.919182,210.615265 46.154987,207.458862 46.619793,207.498505 
	C49.509747,207.744919 53.304005,207.814606 54.983170,209.625763 
	C58.312462,213.216782 60.442413,217.913544 63.110565,222.126373 
	C64.417801,224.190414 65.820183,226.194214 67.179512,228.225281 
	C67.741203,228.154602 68.302902,228.083923 68.864594,228.013245 
	C68.864594,224.418793 68.865395,220.824341 68.864273,217.229889 
	C68.863655,215.234192 69.014801,213.223465 68.823235,211.246094 
	C68.487045,207.775879 70.227257,207.115997 73.279572,207.095642 
	C76.419342,207.074722 77.254204,208.334656 77.216141,211.254822 
	C77.092606,220.732773 77.276627,230.215591 77.075424,239.690872 
	C77.037651,241.469879 75.993233,244.574814 75.028679,244.733749 
	C72.155205,245.207306 68.704948,246.199905 66.558388,242.592346 
	C63.754387,237.879883 60.752522,233.285141 57.636345,228.326263 
z"/>
<path fill="#47C4CC" opacity="1.000000" stroke="none" 
	d="
M145.216522,233.188629 
	C144.806412,231.868332 144.459366,230.324066 143.995087,230.287994 
	C140.357773,230.005234 136.641876,229.571091 133.057663,230.027496 
	C126.999397,230.798965 130.263718,235.775070 130.043411,238.709702 
	C129.520401,245.676575 129.656769,245.864960 121.158058,244.427658 
	C121.158058,241.632889 121.156479,238.698975 121.158356,235.765045 
	C121.163681,227.442337 121.284386,219.117416 121.121307,210.798019 
	C121.054749,207.402878 122.816444,207.057983 125.495216,207.078735 
	C128.116425,207.099060 130.253204,207.313217 129.864441,210.756470 
	C129.808777,211.249603 129.818481,211.757568 129.861435,212.253159 
	C130.128418,215.333878 129.627777,220.650177 130.839111,221.075638 
	C134.558105,222.381882 138.939270,221.955399 143.053391,221.844666 
	C143.801590,221.824539 144.988708,220.184204 145.129913,219.173950 
	C145.449463,216.887421 145.386139,214.516830 145.215881,212.199722 
	C144.973373,208.899307 145.484222,207.001312 149.649887,206.985458 
	C153.998688,206.968933 153.986023,209.250671 153.961472,212.334381 
	C153.885956,221.821609 153.793686,231.313400 154.019867,240.795990 
	C154.108887,244.527679 152.505630,245.137482 149.263474,245.197601 
	C145.726212,245.263199 145.000336,243.655411 145.197723,240.652496 
	C145.350250,238.332214 145.226303,235.993759 145.216522,233.188629 
z"/>
<path fill="#44C4CF" opacity="1.000000" stroke="none" 
	d="
M95.049309,218.917358 
	C99.371223,221.115219 103.480881,222.932159 107.418373,225.066696 
	C111.714882,227.395874 115.199974,230.597549 114.439445,236.061661 
	C113.666496,241.615036 109.523697,244.128845 104.589256,245.413422 
	C97.774406,247.187546 91.536606,245.232986 86.339500,241.002045 
	C81.880020,237.371567 87.242561,235.679794 88.624420,232.782349 
	C90.420219,233.899567 91.832069,235.175827 93.484802,235.718536 
	C96.411736,236.679672 99.460541,237.469360 102.510986,237.742111 
	C103.525230,237.832809 105.130119,236.304352 105.629372,235.153580 
	C105.895889,234.539261 104.596687,232.826141 103.624435,232.182663 
	C101.697922,230.907593 99.467369,230.103455 97.436539,228.971756 
	C94.396866,227.277878 91.113808,225.836243 88.482567,223.632645 
	C83.126060,219.146652 83.918854,212.227951 89.971649,208.685547 
	C95.408432,205.503677 101.059349,205.369949 106.664398,208.247559 
	C113.513908,211.764069 113.592033,213.832397 107.243362,218.404755 
	C104.593887,217.062256 102.085014,215.179108 99.295967,214.561768 
	C96.844513,214.019180 92.991623,213.732162 95.049309,218.917358 
z"/>
<path fill="#41C4CF" opacity="1.000000" stroke="none" 
	d="
M34.572525,231.389740 
	C36.070522,235.842804 37.433388,239.926071 38.794853,244.005127 
	C32.197517,246.241821 30.764477,245.847351 28.612906,239.942032 
	C27.096996,235.781403 23.893988,236.753220 21.180853,236.999619 
	C19.069866,237.191330 15.547503,238.245026 15.272874,239.492493 
	C13.880864,245.815628 9.851327,245.636536 4.412504,244.598862 
	C5.534027,241.184479 6.568656,237.941864 7.663510,234.719696 
	C10.395508,226.679443 13.305082,218.695236 15.827621,210.590271 
	C16.804348,207.452026 18.680033,207.054398 21.439724,207.089401 
	C24.275633,207.125397 26.500114,207.236786 27.537804,210.680969 
	C29.601833,217.531677 32.111721,224.248062 34.572525,231.389740 
M19.832605,228.839859 
	C21.334635,228.839859 22.836662,228.839859 25.075586,228.839859 
	C23.901880,225.692780 23.033165,223.363495 22.164448,221.034195 
	C21.713089,221.042480 21.261728,221.050781 20.810368,221.059082 
	C20.287760,223.475601 19.765150,225.892136 19.832605,228.839859 
z"/>
<path fill="#41C4CF" opacity="1.000000" stroke="none" 
	d="
M209.103622,228.987900 
	C210.462753,233.517670 211.821884,238.047440 213.434433,242.836044 
	C210.820740,246.493454 205.500183,245.987350 204.409180,241.925308 
	C203.380112,238.093933 201.698456,236.581772 197.553131,236.746841 
	C193.443665,236.910492 190.304016,236.999649 189.207306,242.047043 
	C188.059082,247.331558 183.645874,244.248245 179.446045,245.243256 
	C182.570312,235.860733 185.400711,227.360703 188.260101,218.473358 
	C189.009186,216.254501 189.854233,214.460724 190.421814,212.583084 
	C191.425354,209.263214 192.494919,206.851120 196.998596,206.949036 
	C201.245087,207.041382 202.239075,209.252640 203.240936,212.438400 
	C204.822739,217.468185 206.641571,222.423431 208.593140,227.971146 
	C208.918686,228.684021 209.011154,228.835968 209.103622,228.987900 
M199.637161,227.722870 
	C198.883484,225.490997 198.129822,223.259125 197.376160,221.027252 
	C196.964478,221.053986 196.552811,221.080734 196.141129,221.107468 
	C195.400986,223.483719 194.660858,225.859970 193.637817,229.144485 
	C196.112274,228.862045 197.785919,228.671005 199.637161,227.722870 
z"/>
<path fill="#44C4CE" opacity="1.000000" stroke="none" 
	d="
M223.699463,242.004425 
	C219.953568,230.581696 216.549789,219.292252 213.144714,207.998535 
	C220.589264,205.995697 221.275009,206.402481 223.363586,212.971222 
	C225.267838,218.960297 227.345642,224.894180 230.498550,231.096146 
	C231.498260,228.291214 232.528915,225.496826 233.489410,222.678528 
	C234.560730,219.535019 235.538635,216.359665 236.609741,213.216064 
	C238.941818,206.371674 239.170135,206.258804 247.351303,207.887024 
	C243.564438,219.063400 239.805222,230.158203 236.045563,241.628006 
	C233.050140,246.366058 227.346619,246.430054 223.699463,242.004425 
z"/>
<path fill="#38C3D3" opacity="1.000000" stroke="none" 
	d="
M144.769287,12.388655 
	C152.141495,10.174728 159.229980,8.169573 166.659729,5.982401 
	C176.745087,2.016201 185.937286,5.415164 195.171295,8.011611 
	C216.379868,13.975093 236.597366,22.210352 255.433990,34.481937 
	C258.858307,37.137691 262.261566,39.374763 264.905060,42.298752 
	C266.443176,44.000114 266.763123,46.802795 267.353271,49.829964 
	C265.888123,57.195469 264.821808,63.865524 263.476837,70.478897 
	C262.330811,76.113777 260.293671,81.254768 253.647919,83.145454 
	C244.184753,86.755966 235.086716,90.350113 225.709457,93.953468 
	C225.262695,94.043999 225.095154,94.125320 224.625183,94.163063 
	C223.803436,94.381081 223.284103,94.642685 222.389114,94.908234 
	C220.356430,95.560379 218.742599,96.368134 217.035233,96.830490 
	C207.020554,99.542511 196.984024,102.173843 186.544785,104.834045 
	C182.069794,105.808144 178.004883,106.780586 173.939972,107.753036 
	C170.990051,108.249664 167.952850,108.451447 165.105469,109.294403 
	C153.317078,112.784325 141.940292,112.074387 130.596252,107.204132 
	C121.894623,103.468323 112.845062,100.548485 104.086082,96.936363 
	C102.160835,96.142410 100.198380,94.248947 99.292786,92.362648 
	C92.754379,78.743614 88.800003,64.317291 87.263237,49.315166 
	C87.023651,46.976250 88.477684,43.994953 90.060600,42.054836 
	C92.121033,39.529461 95.092957,37.747765 97.854874,35.369473 
	C100.947449,33.289326 103.857773,31.485725 106.893425,29.370045 
	C119.507683,23.571115 131.996613,18.084270 144.769287,12.388655 
M170.594482,84.937012 
	C173.170059,85.035812 175.718094,85.452065 176.500488,81.735901 
	C176.678909,80.888397 179.096100,80.512245 180.645889,79.674896 
	C180.645889,79.674896 180.914032,79.794571 181.246201,80.291931 
	C181.574783,80.508018 181.903381,80.724106 182.667496,81.538803 
	C183.897476,87.496490 188.570145,84.048065 192.575745,84.930534 
	C198.378998,85.587883 197.165726,81.710732 196.608353,78.494820 
	C194.129715,64.194084 191.323059,49.944653 189.168365,35.596581 
	C188.490463,31.082455 186.920746,29.333576 181.669724,30.112230 
	C179.670532,30.089386 177.645020,30.264143 175.677704,30.002029 
	C171.739502,29.477331 170.160721,30.931183 169.623169,34.994617 
	C168.444641,43.903156 166.639984,52.727753 165.150040,61.596539 
	C163.870300,69.214096 162.672546,76.845421 161.375458,84.860489 
	C164.759323,84.860489 167.239304,84.860489 170.594482,84.937012 
z"/>
<path fill="#FCF3A1" opacity="1.000000" stroke="none" 
	d="
M254.013062,83.129089 
	C260.293671,81.254768 262.330811,76.113777 263.476837,70.478897 
	C264.821808,63.865524 265.888123,57.195469 267.286987,50.223007 
	C269.106995,49.441841 270.715302,48.987671 272.592133,48.295456 
	C272.641083,51.931259 274.217163,54.376263 278.253906,54.933701 
	C278.898193,55.022671 279.519897,55.328388 280.133392,55.579544 
	C293.099457,60.887768 294.858215,69.581131 284.976654,79.623428 
	C277.286774,87.438400 267.946564,92.729691 257.360535,96.905251 
	C255.795822,92.161713 254.904434,87.645401 254.013062,83.129089 
z"/>
<path fill="#FDED8F" opacity="1.000000" stroke="none" 
	d="
M214.211761,150.085938 
	C215.451950,148.247177 217.169159,146.681396 218.528030,144.849777 
	C221.879807,140.331970 226.219498,139.087204 231.403168,140.721863 
	C229.377914,140.963379 227.453522,140.963379 224.980560,140.963379 
	C225.467285,143.114563 225.764191,144.358078 226.028992,145.608398 
	C227.523819,152.666718 235.298096,154.738678 238.133484,160.907700 
	C239.283371,163.409561 242.258316,165.049042 244.318283,167.163300 
	C246.087662,168.979309 247.858749,170.817688 249.411377,172.815384 
	C251.987228,176.129578 253.664978,180.255905 258.539551,181.215881 
	C259.761566,181.456528 260.754425,182.964066 261.805908,183.939713 
	C262.941345,184.993271 263.957672,186.181854 265.137238,187.180099 
	C271.989777,192.979477 280.785461,196.507477 285.256409,205.142548 
	C286.338318,207.232178 289.144135,208.429230 291.022980,210.379349 
	C290.051941,213.178757 289.215179,215.635544 288.378418,218.092331 
	C286.411713,217.033310 284.445038,215.974304 282.102417,214.387329 
	C281.776825,207.220535 281.776672,207.231323 274.992798,207.143387 
	C273.666931,207.126205 272.342590,206.989243 271.017548,206.907532 
	C270.110535,203.203339 268.080688,200.715424 264.658447,198.599152 
	C261.166779,196.439972 258.556671,192.855972 255.558044,189.898422 
	C253.934341,188.296921 252.237579,186.763336 250.692856,185.089264 
	C247.615021,181.753708 244.711014,178.254059 241.564056,174.987045 
	C238.411057,171.713745 235.129395,168.553177 231.761337,165.500763 
	C226.075424,160.347733 220.276901,155.318954 214.211761,150.085938 
z"/>
<path fill="#41C4CF" opacity="1.000000" stroke="none" 
	d="
M288.346863,218.340332 
	C289.215179,215.635544 290.051941,213.178757 291.247528,210.121780 
	C293.070343,208.648346 294.534363,207.775101 296.395752,206.990601 
	C300.452515,206.531494 301.987488,208.402328 303.068695,211.737183 
	C305.721008,219.917542 308.771729,227.968750 311.662140,236.071915 
	C312.423981,238.775879 313.185852,241.479858 313.963593,244.563263 
	C312.013062,244.980972 310.003540,245.279312 308.095886,244.963104 
	C306.888702,244.763016 304.949280,243.752411 304.850098,242.924240 
	C304.069397,236.406113 299.579803,236.505005 294.811157,236.882553 
	C294.158051,236.934265 293.502350,236.953522 292.186615,237.119873 
	C291.230225,237.403854 291.104980,237.644272 291.149628,237.973206 
	C287.211304,246.018906 287.175537,246.039886 279.816345,244.232544 
	C281.515320,239.049362 283.205566,233.892914 285.044373,228.155884 
	C285.192963,227.575317 285.257599,227.083191 285.257599,227.083191 
	C286.083130,224.935349 286.908661,222.787506 287.882080,220.072968 
	C288.029999,219.506256 288.041901,219.006958 288.041901,219.006958 
	C288.041901,219.006958 288.315308,218.588333 288.346863,218.340332 
M297.854767,221.911484 
	C296.385651,223.852753 294.916534,225.794006 292.730347,228.682755 
	C296.231628,228.682755 297.859955,228.682755 299.956207,228.682755 
	C299.254974,226.288986 298.712585,224.437515 297.854767,221.911484 
z"/>
<path fill="#42C3CE" opacity="1.000000" stroke="none" 
	d="
M270.553650,206.994019 
	C272.342590,206.989243 273.666931,207.126205 274.992798,207.143387 
	C281.776672,207.231323 281.776825,207.220535 281.739990,214.274078 
	C281.753479,214.688766 281.779266,214.747910 281.581757,214.823303 
	C281.384247,214.898697 281.060059,215.250397 281.060059,215.250397 
	C270.092407,215.162827 270.093170,215.162827 270.095978,225.914993 
	C270.097595,232.039886 270.096252,238.164795 270.096252,244.772720 
	C267.668304,244.919540 265.738281,245.036255 263.144531,245.136780 
	C262.480774,245.120605 261.992920,245.058456 261.992920,245.058456 
	C261.908234,237.417542 261.791992,229.776825 261.748199,222.135666 
	C261.708923,215.285583 261.743896,215.293274 255.013687,215.123993 
	C253.695404,215.090836 252.379303,214.970276 251.122971,214.893723 
	C248.858841,208.040466 249.457504,207.151337 256.130066,207.143463 
	C260.783325,207.137970 265.436554,207.102570 270.553650,206.994019 
z"/>
<path fill="#FDEA82" opacity="1.000000" stroke="none" 
	d="
M97.428268,140.463516 
	C98.937492,140.327484 100.749954,140.404388 102.895416,140.691559 
	C101.396103,140.826706 99.563812,140.751572 97.428268,140.463516 
z"/>
<path fill="#FDED8F" opacity="1.000000" stroke="none" 
	d="
M287.893555,219.075180 
	C288.041901,219.006958 288.029999,219.506256 287.908508,219.724152 
	C287.488037,219.677338 287.474121,219.411133 287.893555,219.075180 
z"/>
<path fill="#FAE77F" opacity="1.000000" stroke="none" 
	d="
M281.197174,215.342926 
	C281.060059,215.250397 281.384247,214.898697 281.613129,214.830841 
	C281.672760,214.987152 281.503540,215.211304 281.197174,215.342926 
z"/>
<path fill="#FAE77F" opacity="1.000000" stroke="none" 
	d="
M285.082184,227.122162 
	C285.257599,227.083191 285.192963,227.575317 285.050903,227.778778 
	C284.816101,227.781296 284.704987,227.585541 284.645752,227.375168 
	C284.633514,227.331741 284.814728,227.233887 285.082184,227.122162 
z"/>
<path fill="#EEE587" opacity="1.000000" stroke="none" 
	d="
M209.232422,228.859100 
	C209.011154,228.835968 208.918686,228.684021 208.802887,228.266052 
	C208.973434,228.243469 209.167328,228.486893 209.232422,228.859100 
z"/>
<path fill="#FAE77F" opacity="1.000000" stroke="none" 
	d="
M291.311829,237.884766 
	C291.104980,237.644272 291.230225,237.403854 291.740906,237.247849 
	C291.839630,237.466354 291.678802,237.650543 291.311829,237.884766 
z"/>
<path fill="#FAE77F" opacity="1.000000" stroke="none" 
	d="
M262.065491,245.194427 
	C261.992920,245.058456 262.480774,245.120605 262.701355,245.228897 
	C262.921936,245.337189 262.521698,245.519806 262.521698,245.519806 
	C262.521698,245.519806 262.138031,245.330383 262.065491,245.194427 
z"/>
<path fill="#FBEB8B" opacity="1.000000" stroke="none" 
	d="
M173.955933,108.155823 
	C178.004883,106.780586 182.069794,105.808144 186.557236,105.255150 
	C188.302124,110.398224 189.624466,115.121857 190.946823,119.845490 
	C187.897125,120.579353 184.847443,121.313217 181.398132,122.026451 
	C179.790604,119.954201 178.494553,117.948387 177.398163,115.838799 
	C176.162292,113.460815 175.106186,110.989403 173.955933,108.155823 
z"/>
<path fill="#FBF09A" opacity="1.000000" stroke="none" 
	d="
M312.118164,236.054443 
	C308.771729,227.968750 305.721008,219.917542 303.068695,211.737183 
	C301.987488,208.402328 300.452515,206.531494 296.393738,206.598541 
	C295.070343,203.118103 293.258087,200.071457 293.413849,197.129013 
	C293.706360,191.604050 290.464966,189.972061 286.303436,188.666946 
	C285.352020,188.368576 284.399017,188.055496 283.485138,187.660431 
	C278.831512,185.648666 276.285095,178.150909 278.552399,173.634537 
	C279.175293,172.393753 279.879089,170.614532 279.443451,169.521835 
	C277.573425,164.831528 267.854645,163.607285 264.719543,167.689362 
	C261.471619,164.839050 255.336136,165.630447 254.740509,159.438492 
	C254.535446,157.306808 254.154129,155.189285 254.014145,153.054749 
	C253.772736,149.373367 252.312729,146.843781 248.533325,145.646652 
	C244.276505,144.298248 240.153946,142.526093 235.972977,140.938278 
	C243.000183,140.660522 250.027390,140.382782 257.486084,140.157013 
	C255.171265,142.361832 255.808014,144.117966 258.706329,145.259079 
	C260.375732,145.916336 262.213287,146.222610 264.005005,146.475983 
	C267.009674,146.900909 268.680328,148.313705 269.143372,151.505219 
	C269.696289,155.315994 272.033478,157.517670 275.518036,159.643448 
	C279.398621,162.010834 282.310669,166.137177 285.191010,169.849548 
	C285.889801,170.750229 285.268463,173.313660 284.460266,174.622208 
	C282.264923,178.176559 283.343872,182.383835 287.241791,183.837616 
	C288.166992,184.182693 289.220276,184.199982 290.125610,184.580048 
	C293.698486,186.080093 296.332703,186.185776 296.118225,181.104111 
	C296.091675,180.475296 296.788483,179.815948 297.150085,179.170761 
	C297.714355,179.247269 298.278625,179.323776 298.842896,179.400284 
	C298.618500,182.238663 298.436798,185.081223 298.157959,187.914246 
	C297.868500,190.855438 297.214508,193.793869 297.284790,196.719940 
	C297.310425,197.788773 298.790558,199.248581 299.933990,199.697556 
	C300.572906,199.948425 301.910095,198.528244 302.882172,197.794205 
	C303.945984,196.990921 304.890198,195.996323 306.043213,195.376633 
	C306.234711,195.273712 307.836731,196.782425 307.725922,197.332794 
	C307.464111,198.633453 306.825165,200.082642 305.874603,200.980179 
	C302.301727,204.353683 302.386444,205.132675 306.908905,207.516006 
	C308.062775,208.124115 309.767548,208.828537 310.025330,209.804138 
	C311.366089,214.878662 315.261230,213.994965 319.357117,214.454651 
	C319.809204,221.939682 319.748749,228.965332 319.688324,235.990982 
	C317.316925,236.006302 314.945557,236.021622 312.118164,236.054443 
z"/>
<path fill="#41C4D0" opacity="1.000000" stroke="none" 
	d="
M319.779724,236.436340 
	C319.748749,228.965332 319.809204,221.939682 319.774750,214.452911 
	C320.237885,207.143799 320.237885,207.142944 327.431152,207.141418 
	C330.073761,207.140869 332.722565,207.262436 335.357727,207.123596 
	C341.049957,206.823715 345.688995,209.119919 347.972107,214.079620 
	C350.237061,218.999863 349.175018,224.104309 344.875549,228.667938 
	C344.235229,229.331558 344.021667,229.609619 343.808105,229.887695 
	C343.808105,229.887695 343.878998,229.803802 343.511230,229.828918 
	C343.089081,230.906174 343.034698,231.958298 342.980286,233.010422 
	C344.698761,236.766922 346.417206,240.523407 348.149689,244.658844 
	C347.367615,245.061844 346.571533,245.085922 345.389832,245.207016 
	C341.224518,245.556931 338.796570,243.943375 337.484985,240.311829 
	C336.758301,238.299850 335.744995,236.286942 334.418457,234.628296 
	C333.308807,233.240799 331.556305,232.367447 330.088470,231.266418 
	C329.499512,232.838226 328.598145,234.372177 328.402039,235.991547 
	C328.165802,237.942139 328.762695,239.991913 328.540222,241.946548 
	C328.416565,243.032669 327.358795,244.012436 326.363953,245.171753 
	C318.884308,246.194229 319.910583,241.149796 319.779724,236.436340 
M332.627777,215.075470 
	C328.546692,214.593506 327.837555,217.013062 328.317627,220.247391 
	C329.131104,225.727814 333.270416,223.075516 336.104401,223.183914 
	C338.959595,223.293121 340.996277,221.735672 340.536804,218.655869 
	C340.361694,217.482559 338.990143,216.128540 337.821808,215.560806 
	C336.584412,214.959503 334.940155,215.195404 332.627777,215.075470 
z"/>
<path fill="#F8F09D" opacity="1.000000" stroke="none" 
	d="
M343.234894,232.765045 
	C343.034698,231.958298 343.089081,230.906174 343.464661,229.799835 
	C343.687073,230.670319 343.588287,231.594986 343.234894,232.765045 
z"/>
<path fill="#F8F09D" opacity="1.000000" stroke="none" 
	d="
M344.060974,229.799103 
	C344.021667,229.609619 344.235229,229.331558 344.708008,228.970291 
	C344.749420,229.161560 344.531677,229.436050 344.060974,229.799103 
z"/>
<path fill="#FEF096" opacity="1.000000" stroke="none" 
	d="
M235.595657,140.893784 
	C240.153946,142.526093 244.276505,144.298248 248.533325,145.646652 
	C252.312729,146.843781 253.772736,149.373367 254.014145,153.054749 
	C254.154129,155.189285 254.535446,157.306808 254.740509,159.438492 
	C255.336136,165.630447 261.471619,164.839050 264.719543,167.689362 
	C267.854645,163.607285 277.573425,164.831528 279.443451,169.521835 
	C279.879089,170.614532 279.175293,172.393753 278.552399,173.634537 
	C276.285095,178.150909 278.831512,185.648666 283.485138,187.660431 
	C284.399017,188.055496 285.352020,188.368576 286.303436,188.666946 
	C290.464966,189.972061 293.706360,191.604050 293.413849,197.129013 
	C293.258087,200.071457 295.070343,203.118103 295.996338,206.509796 
	C294.534363,207.775101 293.070343,208.648346 291.381775,209.779160 
	C289.144135,208.429230 286.338318,207.232178 285.256409,205.142548 
	C280.785461,196.507477 271.989777,192.979477 265.137238,187.180099 
	C263.957672,186.181854 262.941345,184.993271 261.805908,183.939713 
	C260.754425,182.964066 259.761566,181.456528 258.539551,181.215881 
	C253.664978,180.255905 251.987228,176.129578 249.411377,172.815384 
	C247.858749,170.817688 246.087662,168.979309 244.318283,167.163300 
	C242.258316,165.049042 239.283371,163.409561 238.133484,160.907700 
	C235.298096,154.738678 227.523819,152.666718 226.028992,145.608398 
	C225.764191,144.358078 225.467285,143.114563 224.980560,140.963379 
	C227.453522,140.963379 229.377914,140.963379 231.751083,140.928070 
	C233.206009,140.878265 234.212173,140.863785 235.595657,140.893784 
z"/>
<path fill="#FCE880" opacity="1.000000" stroke="none" 
	d="
M73.710617,124.433495 
	C71.753418,123.412086 70.049675,122.686516 68.544815,121.667297 
	C63.067677,117.957695 61.841957,112.849754 64.914658,106.969109 
	C65.375816,106.086510 65.850166,105.200142 66.419952,104.386635 
	C71.705673,96.839882 73.000145,96.734894 80.997124,101.008179 
	C88.753204,105.152725 96.496719,109.600594 104.750435,112.456924 
	C113.339912,115.429466 116.220413,122.711807 121.794731,129.799133 
	C104.756569,130.256119 89.129898,130.228088 73.710617,124.433495 
z"/>
<path fill="#FCF29F" opacity="1.000000" stroke="none" 
	d="
M258.995850,109.017853 
	C265.518433,105.415741 272.030029,101.793472 278.577271,98.236748 
	C279.405853,97.786629 280.986725,97.178688 281.263733,97.491043 
	C284.520477,101.163422 288.224731,104.655853 290.523987,108.893959 
	C292.471466,112.483650 291.612823,116.942337 288.227997,119.813370 
	C285.748047,121.916893 282.814423,124.027794 279.748413,124.790794 
	C272.241333,126.658989 264.540436,127.748451 256.460175,128.680725 
	C256.165680,125.914330 256.148712,123.588081 256.530518,121.329247 
	C257.227783,117.204399 258.161041,113.119446 258.995850,109.017853 
z"/>
<path fill="#FBEE93" opacity="1.000000" stroke="none" 
	d="
M191.341629,119.848885 
	C189.624466,115.121857 188.302124,110.398224 186.967316,105.253494 
	C196.984024,102.173843 207.020554,99.542511 217.035233,96.830490 
	C218.742599,96.368134 220.356430,95.560379 222.688019,94.916748 
	C223.884262,94.683083 224.405930,94.444862 224.927597,94.206650 
	C225.095154,94.125320 225.262695,94.043999 225.712540,94.420395 
	C226.387024,99.723625 226.779190,104.569145 227.171356,109.414658 
	C215.359711,112.893867 203.548080,116.373077 191.341629,119.848885 
z"/>
<path fill="#FBF09A" opacity="1.000000" stroke="none" 
	d="
M227.557678,109.343674 
	C226.779190,104.569145 226.387024,99.723625 225.991760,94.411179 
	C235.086716,90.350113 244.184753,86.755966 253.647919,83.145454 
	C254.904434,87.645401 255.795822,92.161713 257.002869,96.939194 
	C247.527008,101.224472 237.735504,105.248581 227.557678,109.343674 
z"/>
<path fill="#FCF09A" opacity="1.000000" stroke="none" 
	d="
M258.634552,109.060440 
	C258.161041,113.119446 257.227783,117.204399 256.530518,121.329247 
	C256.148712,123.588081 256.165680,125.914330 256.005432,128.658691 
	C256.008087,129.107208 255.606888,129.146362 255.208115,129.142487 
	C254.550644,129.222992 254.332474,129.368195 254.154846,129.574203 
	C247.600677,129.574203 241.046494,129.574203 234.047501,129.574203 
	C238.257721,117.680077 247.500580,112.491966 258.634552,109.060440 
z"/>
<path fill="#FCF29F" opacity="1.000000" stroke="none" 
	d="
M254.358841,129.569504 
	C254.332474,129.368195 254.550644,129.222992 255.010620,129.102280 
	C255.047134,129.299500 254.830780,129.465790 254.358841,129.569504 
z"/>
<path fill="#DCDF8D" opacity="1.000000" stroke="none" 
	d="
M19.537575,228.574249 
	C19.765150,225.892136 20.287760,223.475601 20.810368,221.059082 
	C21.261728,221.050781 21.713089,221.042480 22.164448,221.034195 
	C23.033165,223.363495 23.901880,225.692780 25.075586,228.839859 
	C22.836662,228.839859 21.334635,228.839859 19.537575,228.574249 
z"/>
<path fill="#E1E18A" opacity="1.000000" stroke="none" 
	d="
M199.548370,228.101410 
	C197.785919,228.671005 196.112274,228.862045 193.637817,229.144485 
	C194.660858,225.859970 195.400986,223.483719 196.141129,221.107468 
	C196.552811,221.080734 196.964478,221.053986 197.376160,221.027252 
	C198.129822,223.259125 198.883484,225.490997 199.548370,228.101410 
z"/>
<path fill="#F2FCFC" opacity="1.000000" stroke="none" 
	d="
M191.690369,84.841217 
	C188.570145,84.048065 183.897476,87.496490 182.346481,80.934692 
	C181.654984,80.151909 181.284515,79.973244 180.914032,79.794571 
	C180.914032,79.794571 180.645889,79.674896 180.175400,79.591827 
	C170.770142,78.720779 170.770142,78.720779 169.719299,84.860489 
	C167.239304,84.860489 164.759323,84.860489 161.375458,84.860489 
	C162.672546,76.845421 163.870300,69.214096 165.150040,61.596539 
	C166.639984,52.727753 168.444641,43.903156 169.623169,34.994617 
	C170.160721,30.931183 171.739502,29.477331 175.677704,30.002029 
	C177.645020,30.264143 179.670532,30.089386 182.185577,30.527981 
	C182.976074,32.408981 183.278030,33.869713 183.521164,35.340172 
	C186.249466,51.839657 188.968689,68.340637 191.690369,84.841217 
M175.076523,53.830887 
	C174.177505,59.315903 173.278473,64.800919 172.352814,70.448410 
	C175.463013,70.448410 177.969193,70.448410 180.994568,70.448410 
	C179.691284,63.124935 178.485718,56.350491 177.280151,49.576046 
	C176.856598,49.623585 176.433044,49.671124 176.009491,49.718662 
	C175.733627,50.826900 175.457764,51.935143 175.076523,53.830887 
z"/>
<path fill="#39A5B0" opacity="1.000000" stroke="none" 
	d="
M192.133057,84.885880 
	C188.968689,68.340637 186.249466,51.839657 183.521164,35.340172 
	C183.278030,33.869713 182.976074,32.408981 182.620285,30.530838 
	C186.920746,29.333576 188.490463,31.082455 189.168365,35.596581 
	C191.323059,49.944653 194.129715,64.194084 196.608353,78.494820 
	C197.165726,81.710732 198.378998,85.587883 192.133057,84.885880 
z"/>
<path fill="#3FA7B0" opacity="1.000000" stroke="none" 
	d="
M170.156891,84.898750 
	C170.770142,78.720779 170.770142,78.720779 180.093887,79.713959 
	C179.096100,80.512245 176.678909,80.888397 176.500488,81.735901 
	C175.718094,85.452065 173.170059,85.035812 170.156891,84.898750 
z"/>
<path fill="#FBF09A" opacity="1.000000" stroke="none" 
	d="
M224.625183,94.163063 
	C224.405930,94.444862 223.884262,94.683083 223.063690,94.912796 
	C223.284103,94.642685 223.803436,94.381081 224.625183,94.163063 
z"/>
<path fill="#3FA7B0" opacity="1.000000" stroke="none" 
	d="
M181.080109,80.043251 
	C181.284515,79.973244 181.654984,80.151909 182.128723,80.635391 
	C181.903381,80.724106 181.574783,80.508018 181.080109,80.043251 
z"/>
<path fill="#DDE296" opacity="1.000000" stroke="none" 
	d="
M298.012512,222.248764 
	C298.712585,224.437515 299.254974,226.288986 299.956207,228.682755 
	C297.859955,228.682755 296.231628,228.682755 292.730347,228.682755 
	C294.916534,225.794006 296.385651,223.852753 298.012512,222.248764 
z"/>
<path fill="#EDECA0" opacity="1.000000" stroke="none" 
	d="
M333.050690,215.070557 
	C334.940155,215.195404 336.584412,214.959503 337.821808,215.560806 
	C338.990143,216.128540 340.361694,217.482559 340.536804,218.655869 
	C340.996277,221.735672 338.959595,223.293121 336.104401,223.183914 
	C333.270416,223.075516 329.131104,225.727814 328.317627,220.247391 
	C327.837555,217.013062 328.546692,214.593506 333.050690,215.070557 
z"/>
<path fill="#4FACB4" opacity="1.000000" stroke="none" 
	d="
M175.129211,53.437134 
	C175.457764,51.935143 175.733627,50.826900 176.009491,49.718662 
	C176.433044,49.671124 176.856598,49.623585 177.280151,49.576046 
	C178.485718,56.350491 179.691284,63.124935 180.994568,70.448410 
	C177.969193,70.448410 175.463013,70.448410 172.352814,70.448410 
	C173.278473,64.800919 174.177505,59.315903 175.129211,53.437134 
z"/>
</svg>